STARTFONT 2.1
FONT -Monotype-Times New Roman-Regular-I-Normal--50-360-100-100-P-271-iso8859-9
SIZE 36 100 100
FONTBOUNDINGBOX 63 55 -10 -11

STARTPROPERTIES 24
FOUNDRY "Monotype"
FAMILY_NAME "Times New Roman"
WEIGHT_NAME "Regular"
SLANT "I"
SETWIDTH_NAME "Normal"
ADD_STYLE_NAME ""
PIXEL_SIZE 50
POINT_SIZE 360
RESOLUTION_X 100
RESOLUTION_Y 100
SPACING "P"
AVERAGE_WIDTH 271
CHARSET_REGISTRY "iso8859"
CHARSET_ENCODING "9"
FACE_NAME "Times New Roman Italic ISO Latin5"
_DEC_DEVICE_FONTNAMES "PS=timesnewroman-it-lat5"
COPYRIGHT "Copyright (c) 1993 Monotype Typography Ltd."
CAP_HEIGHT 38
X_HEIGHT 25
WEIGHT 10
QUAD_WIDTH 28
DEFAULT_CHAR 160
FONT_DESCENT 13
FONT_ASCENT 45
ENDPROPERTIES

CHARS 191

STARTCHAR space
ENCODING 32
SWIDTH 250 0
DWIDTH 13 0
BBX 0 0 0 0
BITMAP
ENDCHAR

STARTCHAR exclam
ENCODING 33
SWIDTH 333 0
DWIDTH 17 0
BBX 15 35 3 -1
BITMAP
0010
0038
0078
0078
0078
00F8
00F0
00F0
00F0
00E0
00E0
01C0
01C0
01C0
0180
0180
0380
0300
0300
0300
0200
0600
0400
0400
0400
0800
0000
0000
0000
0000
3800
7C00
7C00
7C00
3800
ENDCHAR

STARTCHAR quotedbl
ENCODING 34
SWIDTH 420 0
DWIDTH 21 0
BBX 18 14 6 20
BITMAP
0E0700
1E0F00
1E0F00
3E1F00
3E1F00
3C1E00
3C1E00
3C1E00
381C00
381C00
703800
703800
603000
603000
ENDCHAR

STARTCHAR numbersign
ENCODING 35
SWIDTH 500 0
DWIDTH 25 0
BBX 26 34 1 0
BITMAP
00300C00
00300C00
00300C00
00600C00
00600C00
00601800
00601800
00601800
00C01800
00C01800
00C03000
7FFFFF00
7FFFFF00
01803000
01803000
01806000
01806000
03806000
03006000
0300E000
0300C000
7FFFFF00
7FFFFF00
0600C000
0601C000
06018000
06018000
0C018000
0C018000
0C030000
0C030000
0C030000
18030000
18030000
ENDCHAR

STARTCHAR dollar
ENCODING 36
SWIDTH 500 0
DWIDTH 25 0
BBX 25 39 1 -4
BITMAP
00006000
00004000
001FE000
0038F800
00609E00
00E08E00
01C08E00
01C18C00
03C10400
03C10400
03C30400
03C30000
01E20000
01F20000
00FE0000
00FE0000
007E0000
003F8000
001FC000
000FC000
000FE000
001BF000
0019F000
0010F800
00107800
00307800
10207800
10207800
10207000
30607000
30407000
3840E000
78C1C000
7CC38000
1F8F0000
07FC0000
01800000
01000000
01000000
ENDCHAR

STARTCHAR percent
ENCODING 37
SWIDTH 833 0
DWIDTH 42 0
BBX 41 35 2 -1
BITMAP
007C00000E00
01C600001C00
038300003800
070300007000
0F038000E000
0E038001C000
1E0380038000
1C0380070000
3C07800E0000
3C07801C0000
3C0700380000
380F00700000
380F00600000
381E00C00000
181C01800000
183803000000
0C7006000000
07C00C01F000
000018071800
0000300E0C00
0000601C0C00
0000C03C0E00
000180380E00
000300780E00
000600700E00
000C00F01E00
001800F01E00
003000F01C00
006000E03C00
00C000E03C00
018000E07800
030000607000
06000060E000
0C000031C000
1800001F0000
ENDCHAR

STARTCHAR ampersand
ENCODING 38
SWIDTH 778 0
DWIDTH 39 0
BBX 36 35 2 -1
BITMAP
0000078000
00001FE000
000070E000
0000E07000
0000E07000
0001C07000
0001C07000
0001C07000
0003C0E000
0003C1E000
0003C3C000
0003C78000
0003DE0000
0003F80000
0003E00000
001FE00000
0079E00000
01E1F0FFC0
07C1F03F00
0F81F01C00
1F00F03800
1E00F83000
3E00F83000
3C007C6000
7C007CC000
7C007C8000
7C003F8000
7C003F0000
7C001F0000
7E001F8000
3F001F8000
3F8077C040
1FE1E3F0C0
0FFF81FF80
03FC007E00
ENDCHAR

STARTCHAR quoteright
ENCODING 39
SWIDTH 333 0
DWIDTH 17 0
BBX 10 11 8 23
BITMAP
0E00
1F00
1F00
1F00
0F00
0700
0600
0C00
1800
3000
4000
ENDCHAR

STARTCHAR parenleft
ENCODING 40
SWIDTH 333 0
DWIDTH 17 0
BBX 22 45 2 -11
BITMAP
000030
000060
0000C0
000180
000300
000600
000C00
001800
003800
007000
00E000
01E000
01C000
03C000
078000
078000
0F8000
0F0000
0F0000
1F0000
1E0000
1E0000
1E0000
3C0000
3C0000
3C0000
3C0000
3C0000
3C0000
380000
380000
380000
380000
180000
180000
180000
180000
0C0000
0C0000
040000
040000
060000
020000
030000
010000
ENDCHAR

STARTCHAR parenright
ENCODING 41
SWIDTH 333 0
DWIDTH 17 0
BBX 22 44 -7 -10
BITMAP
000300
000100
000180
000080
0000C0
0000C0
0000C0
000060
000060
000060
000070
000070
000070
000070
000070
000070
0000F0
0000F0
0000F0
0000F0
0000F0
0001F0
0001E0
0001E0
0001E0
0003E0
0003C0
0003C0
000780
000780
000F00
000E00
001E00
001C00
003800
007000
007000
00E000
01C000
038000
060000
0C0000
180000
300000
ENDCHAR

STARTCHAR asterisk
ENCODING 42
SWIDTH 500 0
DWIDTH 25 0
BBX 21 20 5 15
BITMAP
006000
00F000
00F000
00F000
00F000
7861E0
7C63E0
7E67E0
1F6F80
01FC00
006000
079E00
3F6FC0
7E67E0
7C63E0
7871E0
00F000
00F000
00F000
00F000
ENDCHAR

STARTCHAR plus
ENCODING 43
SWIDTH 675 0
DWIDTH 34 0
BBX 30 26 3 4
BITMAP
00030000
00030000
00030000
00030000
00030000
00030000
00030000
00030000
00030000
00030000
00030000
00030000
3FFFFFF0
3FFFFFF0
00030000
00030000
00030000
00030000
00030000
00030000
00030000
00030000
00030000
00030000
00030000
00030000
ENDCHAR

STARTCHAR comma
ENCODING 44
SWIDTH 250 0
DWIDTH 13 0
BBX 10 10 -2 -6
BITMAP
0F00
1F00
1F00
0F00
0700
0600
0600
0C00
1800
6000
ENDCHAR

STARTCHAR minus
ENCODING 45
SWIDTH 675 0
DWIDTH 34 0
BBX 29 2 4 16
BITMAP
7FFFFFE0
7FFFFFE0
ENDCHAR

STARTCHAR period
ENCODING 46
SWIDTH 250 0
DWIDTH 13 0
BBX 7 5 1 -1
BITMAP
38
7C
7C
7C
38
ENDCHAR

STARTCHAR slash
ENCODING 47
SWIDTH 278 0
DWIDTH 14 0
BBX 24 36 -3 -1
BITMAP
00000C
000018
000018
000030
000030
000060
000060
0000C0
0000C0
000180
000180
000300
000300
000600
000600
000C00
001C00
001800
003000
003000
006000
006000
00C000
00C000
018000
018000
030000
030000
060000
060000
0C0000
0C0000
180000
380000
300000
700000
ENDCHAR

STARTCHAR zero
ENCODING 48
SWIDTH 500 0
DWIDTH 25 0
BBX 24 35 2 -1
BITMAP
0007C0
001C70
003830
007038
00E01C
01E01C
03C01C
03C01E
07801E
07801E
0F001E
0F001E
1F001E
1E003E
1E003E
3E003E
3E003E
3E003C
3C003C
3C007C
7C007C
7C0078
7C00F8
7800F8
7800F0
7801F0
7801E0
7801E0
3803C0
380380
380780
180F00
1C0E00
0E3800
03F000
ENDCHAR

STARTCHAR one
ENCODING 49
SWIDTH 500 0
DWIDTH 25 0
BBX 21 34 1 0
BITMAP
000030
0003F0
001FE0
0003E0
0003E0
0003C0
0003C0
0003C0
0003C0
000780
000780
000780
000700
000F00
000F00
000F00
001E00
001E00
001E00
001C00
003C00
003C00
003C00
007800
007800
007800
007000
00F000
00F000
00F000
01E000
01E000
03F000
3FFE00
ENDCHAR

STARTCHAR two
ENCODING 50
SWIDTH 500 0
DWIDTH 25 0
BBX 26 34 -1 0
BITMAP
0003E000
000FF800
001FFC00
003FFE00
00707E00
00C01F00
00801F00
00000F00
00000F00
00000F00
00000F00
00000E00
00000E00
00001C00
00001C00
00003800
00003000
00006000
0000C000
00018000
00030000
00060000
000C0000
00180000
00300000
00600000
00C00000
01800800
03001000
06003000
0FFFE000
1FFFE000
3FFFC000
7FFFC000
ENDCHAR

STARTCHAR three
ENCODING 51
SWIDTH 500 0
DWIDTH 25 0
BBX 24 35 0 -1
BITMAP
0003C0
000FF0
003FF8
0060F8
00407C
00803C
00003C
00003C
00003C
000038
000078
0000F0
0001C0
000380
001E00
01FF80
007FC0
000FE0
0007E0
0003F0
0001F0
0001F0
0000F0
0000F0
0000F0
0000F0
0000E0
0000E0
0001C0
0001C0
180380
3E0300
7F8E00
3FF800
1FE000
ENDCHAR

STARTCHAR four
ENCODING 52
SWIDTH 500 0
DWIDTH 25 0
BBX 26 34 0 -1
BITMAP
00000300
00000700
00000F00
00001E00
00003E00
00007E00
00007E00
0000DC00
0001BC00
00033C00
00063800
000C3800
00187800
00307000
00707000
00E0F000
01C0F000
0380E000
0301E000
0601E000
0C01C000
1801C000
3FFFFC00
3FFFFC00
3FFFF800
00078000
00078000
00070000
00070000
000F0000
000F0000
000E0000
001E0000
001E0000
ENDCHAR

STARTCHAR five
ENCODING 53
SWIDTH 500 0
DWIDTH 25 0
BBX 26 34 0 -1
BITMAP
0007FF00
000FFF00
000FFE00
000FFE00
00180000
00100000
00300000
00200000
00780000
007F0000
00FF8000
00FFC000
001FE000
0007F000
0001F000
0000F000
0000F800
00007800
00007800
00007800
00007800
00007800
00007000
00007000
00007000
00006000
0000E000
0000C000
00018000
3C030000
3F060000
3FFC0000
1FF00000
07800000
ENDCHAR

STARTCHAR six
ENCODING 54
SWIDTH 500 0
DWIDTH 25 0
BBX 25 35 2 -1
BITMAP
00000300
00003E00
0000F000
0003C000
000F8000
001F0000
003E0000
00780000
00F80000
01F00000
03E00000
03C00000
07DF0000
0FFFC000
0FC3E000
1F01E000
1F00F000
1E00F000
3E00F800
3C00F800
3C00F800
3C00F800
7C00F800
7800F000
7800F000
7800F000
7801F000
3801E000
3801E000
3803C000
38038000
1C070000
0C0E0000
063C0000
03F00000
ENDCHAR

STARTCHAR seven
ENCODING 55
SWIDTH 500 0
DWIDTH 25 0
BBX 24 34 4 -1
BITMAP
07FFFC
07FFFC
0FFFF8
0FFFF8
1C0030
100070
200060
0000C0
0001C0
000180
000380
000300
000700
000600
000E00
001C00
001800
003800
003000
007000
006000
00E000
01C000
018000
038000
030000
070000
060000
0E0000
0C0000
180000
380000
300000
100000
ENDCHAR

STARTCHAR eight
ENCODING 56
SWIDTH 500 0
DWIDTH 25 0
BBX 27 35 0 -1
BITMAP
0007F000
000E1C00
00380600
00300700
00700380
00700380
00F00380
00F00380
00F00380
00F80380
00780700
007C0E00
003E0E00
003F3800
001FF000
000F8000
001FC000
0077E000
01C3F000
0381F000
0700F800
0E00F800
1E007C00
1C007C00
3C003C00
38003C00
38003C00
38003800
38003800
38003800
1C007000
0C006000
0E00C000
03838000
00FE0000
ENDCHAR

STARTCHAR nine
ENCODING 57
SWIDTH 500 0
DWIDTH 25 0
BBX 25 35 1 -1
BITMAP
0007E000
001C3000
00381800
00700C00
00E00E00
01E00E00
03C00E00
03C00F00
07C00F00
07800F00
07800F00
07800F00
0F800F00
0F801E00
0F801E00
0F801E00
07803E00
07803C00
07803C00
03C07C00
03E0F800
00FFF800
003DF000
0001E000
0003E000
0007C000
000F8000
000F0000
001E0000
003C0000
00F80000
01E00000
07800000
3E000000
60000000
ENDCHAR

STARTCHAR colon
ENCODING 58
SWIDTH 333 0
DWIDTH 17 0
BBX 12 23 2 -1
BITMAP
01C0
03E0
03E0
03E0
01C0
0000
0000
0000
0000
0000
0000
0000
0000
0000
0000
0000
0000
0000
3800
7C00
7C00
7C00
3800
ENDCHAR

STARTCHAR semicolon
ENCODING 59
SWIDTH 333 0
DWIDTH 17 0
BBX 14 28 0 -6
BITMAP
0070
00F8
00F8
00F8
0070
0000
0000
0000
0000
0000
0000
0000
0000
0000
0000
0000
0000
0000
0E00
1F00
1F00
0F00
0700
0600
0600
0C00
1800
6000
ENDCHAR

STARTCHAR less
ENCODING 60
SWIDTH 675 0
DWIDTH 34 0
BBX 29 23 4 5
BITMAP
00000060
000003E0
00000F80
00003E00
0001F000
0007C000
001F0000
007C0000
03E00000
0F800000
3E000000
78000000
3E000000
0FC00000
01F00000
007C0000
001F0000
0003E000
0000F800
00003E00
00000FC0
000001E0
00000060
ENDCHAR

STARTCHAR equal
ENCODING 61
SWIDTH 675 0
DWIDTH 34 0
BBX 29 10 4 12
BITMAP
7FFFFFE0
7FFFFFE0
00000000
00000000
00000000
00000000
00000000
00000000
7FFFFFE0
7FFFFFE0
ENDCHAR

STARTCHAR greater
ENCODING 62
SWIDTH 675 0
DWIDTH 34 0
BBX 29 23 4 5
BITMAP
70000000
7C000000
1F000000
03E00000
00F80000
003E0000
000F8000
0001F000
00007C00
00001F00
000003E0
000001E0
000007C0
00001F00
00007C00
0003E000
000F8000
003E0000
01F00000
07C00000
1F000000
7C000000
60000000
ENDCHAR

STARTCHAR question
ENCODING 63
SWIDTH 500 0
DWIDTH 25 0
BBX 20 35 4 -1
BITMAP
01FC00
070F00
0C0380
0C01C0
1E01C0
1E01E0
1E01E0
0C01E0
0001E0
0003C0
0003C0
000780
000F00
001E00
003C00
007800
00E000
00C000
018000
030000
020000
060000
040000
0C0000
080000
080000
000000
000000
000000
000000
380000
7C0000
7C0000
7C0000
380000
ENDCHAR

STARTCHAR at
ENCODING 64
SWIDTH 920 0
DWIDTH 46 0
BBX 46 46 0 -11
BITMAP
00000FFC0000
0000F8038000
0003C0006000
000700003800
001C00000C00
003800000600
007000000300
00E000000100
01C000000180
038000000080
0300000000C0
070001E1C040
0600071BC040
0E000C0B8060
0C00380F8060
1C00380F8060
1800700F8060
1800E00F0060
1801E00F0060
3801C00F0060
3803C00E0040
3003801E0040
3007801E00C0
3007803C00C0
3007003C0180
300F007C0180
300F007C0300
300F00B80300
380F01380600
180F03780C00
180F86781818
1807FC787010
0C03F03FC030
0C01E01F0020
060000000060
0600000000C0
0300000000C0
038000000180
01C000000300
00E000000600
007000001C00
001800003800
000E0000E000
0003C0078000
0000FFFE0000
00000FE00000
ENDCHAR

STARTCHAR A
ENCODING 65
SWIDTH 611 0
DWIDTH 31 0
BBX 33 34 -4 0
BITMAP
0000000C00
0000000C00
0000001800
0000003800
0000003800
0000007800
000000F800
000001F800
000001F800
0000037800
0000067800
00000C7800
00000CF800
000018F000
000030F000
000060F000
000060F000
0000C0F000
000180F000
000100F000
000300F000
0007FFF000
000FFFF000
000801F000
001801E000
003001E000
006001E000
006001E000
00C001E000
018001E000
038001E000
078003E000
0F8007F000
3FE03FFE00
ENDCHAR

STARTCHAR B
ENCODING 66
SWIDTH 611 0
DWIDTH 31 0
BBX 33 33 -3 0
BITMAP
003FFFC000
0007FFF000
0003C0FC00
0003C03E00
0003C03E00
0007C01F00
0007801F00
0007801F00
0007801F00
000F001F00
000F003E00
000F003E00
001F007C00
001E00F800
001E03E000
003FFF8000
003FFF8000
003C07C000
003C03E000
007C01F000
007800F800
007800F800
00F800F800
00F800F800
00F000F800
00F000F800
01F001F000
01E003F000
01E003E000
03E00FC000
03C03F8000
07FFFE0000
7FFFF00000
ENDCHAR

STARTCHAR C
ENCODING 67
SWIDTH 667 0
DWIDTH 33 0
BBX 35 35 1 -1
BITMAP
00000FC040
0000FFF880
0003E01F80
000F800F80
001E000780
003C000380
0078000300
00F0000300
01E0000300
03E0000300
07C0000200
07C0000000
0F80000000
0F80000000
1F00000000
1F00000000
1F00000000
3F00000000
3E00000000
3E00000000
3E00000000
3E00000000
3E00000000
3E00000000
3E00000000
3F00000000
1F00000000
1F00000800
0F80001000
0FC0002000
07C0006000
03F0018000
01FC0F0000
007FFC0000
001FF00000
ENDCHAR

STARTCHAR D
ENCODING 68
SWIDTH 722 0
DWIDTH 36 0
BBX 40 33 -3 0
BITMAP
003FFFE000
0007FFFC00
0003E01F80
0003C007C0
0003C003E0
0003C001F0
0007C000F0
00078000F8
00078000F8
000F80007C
000F00007C
000F00007C
001F00007C
001E00007C
001E00007C
001E00007C
003E00007C
003C00007C
003C0000F8
007C0000F8
00780000F8
00780001F0
00780001F0
00F80003E0
00F00003C0
00F00007C0
01F0000F80
01E0001F00
01E0003C00
03E000F800
03E007E000
07FFFF0000
3FFFE00000
ENDCHAR

STARTCHAR E
ENCODING 69
SWIDTH 611 0
DWIDTH 31 0
BBX 36 33 -3 0
BITMAP
001FFFFFC0
0003FFFFC0
0003E007C0
0003E001C0
0003C00180
0003C00080
0003C00080
0007C00080
0007800000
0007800000
000F802000
000F004000
000F004000
001F00C000
001F01C000
001FFF8000
001FFF8000
003E038000
003C010000
003C010000
007C010000
0078010000
0078000000
0078000000
00F8000400
00F0000400
00F0000C00
01F0001800
01E0003800
01E0007800
03F003F000
07FFFFF000
3FFFFFF000
ENDCHAR

STARTCHAR F
ENCODING 70
SWIDTH 611 0
DWIDTH 31 0
BBX 38 33 -3 0
BITMAP
001FFFFFF0
0007FFFFF0
0003E001F0
0003E000E0
0003C00060
0003C00060
0003C00060
0007C00040
0007800040
0007800000
000F801000
000F003000
000F002000
000F006000
001F00E000
001FFFC000
001FFFC000
003E01C000
003C00C000
003C008000
003C008000
007C008000
0078000000
0078000000
00F8000000
00F0000000
00F0000000
00F0000000
01F0000000
01E0000000
03E0000000
07F0000000
3FFE000000
ENDCHAR

STARTCHAR G
ENCODING 71
SWIDTH 722 0
DWIDTH 36 0
BBX 36 35 2 -1
BITMAP
00001FE040
0000FFFCC0
0003E01FC0
000F8007C0
001E000380
007C000180
00F8000180
01F0000180
03E0000100
03C0000100
07C0000000
0F80000000
0F80000000
0F80000000
1F00000000
1F00000000
1F00000000
3E0007FFE0
3E0000FF00
3E00007E00
3E00007C00
3E00007C00
3E00007800
3E00007800
3E0000F800
1F0000F000
1F0000F000
1F0000F000
0F8001F000
078001E000
07C001E000
03E003E000
00F80FE000
003FFF0000
0007F80000
ENDCHAR

STARTCHAR H
ENCODING 72
SWIDTH 722 0
DWIDTH 36 0
BBX 45 33 -3 0
BITMAP
001FFF03FFE0
0003F0007F00
0003E0003E00
0003E0003C00
0003C0003C00
0003C0003C00
0003C0007C00
0007C0007800
000780007800
00078000F800
000F8000F000
000F0000F000
000F0000F000
000F0001F000
001F0001E000
001FFFFFE000
001FFFFFE000
003E0003C000
003C0003C000
003C0003C000
003C0007C000
007C00078000
007800078000
0078000F8000
00F8000F0000
00F0000F0000
00F0001F0000
00F0001F0000
01F0001E0000
01E0003E0000
03E0003E0000
07F0007F0000
3FFE03FFE000
ENDCHAR

STARTCHAR I
ENCODING 73
SWIDTH 333 0
DWIDTH 17 0
BBX 25 33 -3 0
BITMAP
001FFF00
0003F000
0003E000
0003E000
0003C000
0003C000
0003C000
0007C000
00078000
00078000
000F8000
000F0000
000F0000
000F0000
001F0000
001E0000
001E0000
003E0000
003C0000
003C0000
003C0000
00780000
00780000
00780000
00F80000
00F00000
00F00000
00F00000
01F00000
01E00000
03E00000
07F00000
3FFE0000
ENDCHAR

STARTCHAR J
ENCODING 74
SWIDTH 444 0
DWIDTH 22 0
BBX 32 34 -3 -1
BITMAP
00007FFC
00000FE0
00000FC0
00000F80
00000F80
00000F00
00000F00
00000F00
00001E00
00001E00
00001E00
00003E00
00003C00
00003C00
00003C00
00007800
00007800
00007800
0000F800
0000F000
0000F000
0001F000
0001E000
0001E000
0001E000
0003C000
3C03C000
3C078000
7C078000
7C0F0000
781E0000
383C0000
1FF00000
07800000
ENDCHAR

STARTCHAR K
ENCODING 75
SWIDTH 667 0
DWIDTH 33 0
BBX 41 33 -3 0
BITMAP
001FFF07FF00
0003F803F800
0003E001E000
0003E0038000
0003C0070000
0003C00E0000
0003C0180000
0007C0300000
000780E00000
000781800000
000F87000000
000F0E000000
000F1C000000
000F70000000
001EE0000000
001FF0000000
001EF8000000
003E78000000
003C7C000000
003C3E000000
003C3E000000
007C1F000000
00780F800000
00780F800000
00F807C00000
00F003C00000
00F003E00000
00F001F00000
01F001F80000
01E000F80000
03E000FC0000
07F001FF0000
3FFE07FFE000
ENDCHAR

STARTCHAR L
ENCODING 76
SWIDTH 556 0
DWIDTH 28 0
BBX 31 33 -3 0
BITMAP
001FFF00
0003F000
0003E000
0003E000
0003C000
0003C000
0003C000
0007C000
00078000
00078000
000F8000
000F0000
000F0000
000F0000
001E0000
001E0000
001E0000
003E0000
003C0000
003C0000
003C0000
00780000
00780000
00780000
00F80008
00F00018
00F00010
01F00030
01E00070
01E000E0
03F003E0
07FFFFE0
3FFFFFC0
ENDCHAR

STARTCHAR M
ENCODING 77
SWIDTH 833 0
DWIDTH 42 0
BBX 51 33 -3 0
BITMAP
001FE000007F80
0007E00000FC00
0001E00001F800
0003E00001F000
0003E00003F000
0003F00007E000
0007F0000DE000
0006F0000FE000
0006F0001BC000
0004F00033C000
000CF00033C000
000CF00067C000
000CF000C78000
0018F001878000
0018F8018F8000
0018F8030F0000
001078060F0000
0030780E0F0000
0030780C1F0000
002078181E0000
006078301E0000
006078303E0000
006078603C0000
00C07CC03C0000
00C07D803C0000
00C03D80780000
00803F00780000
01803E00780000
01803E00F80000
01803C00F80000
03803801F80000
07C03003F80000
3FF0301FFF8000
ENDCHAR

STARTCHAR N
ENCODING 78
SWIDTH 667 0
DWIDTH 33 0
BBX 43 34 -3 -1
BITMAP
007FC003FF80
000FC0007C00
0007C0003800
0003E0003000
0003E0003000
0003F0006000
0006F0006000
0006F0006000
0006F8004000
00047800C000
000C7C00C000
000C3C00C000
000C3C018000
00183E018000
00181E018000
00181E010000
00100F030000
00300F030000
00300F830000
003007860000
006007860000
006003C60000
006003C40000
004003EC0000
00C001EC0000
00C001EC0000
00C000F80000
008000F80000
018000F80000
018000700000
038000700000
07C000300000
3FF800300000
000000200000
ENDCHAR

STARTCHAR O
ENCODING 79
SWIDTH 722 0
DWIDTH 36 0
BBX 37 35 1 -1
BITMAP
000007C000
00007FF800
0001E03E00
0007800F00
000F000F80
001E000780
003C0007C0
00780003C0
00F00003E0
01F00003E0
03E00003E0
03E00003E0
07C00003E0
07C00003E0
0F800003E0
0F800007E0
1F000007C0
1F000007C0
1F00000FC0
3F00000FC0
3E00000F80
3E00001F80
3E00001F00
3E00003F00
3E00003E00
3E00007C00
3E00007C00
1E0000F800
1F0001F000
0F0003E000
0F8007C000
07C00F0000
03E03E0000
00FFF00000
001F000000
ENDCHAR

STARTCHAR P
ENCODING 80
SWIDTH 611 0
DWIDTH 31 0
BBX 35 33 -3 0
BITMAP
001FFFF000
0007FFFC00
0003E01F00
0003E00F80
0003C00780
0003C007C0
0003C007C0
0007C007C0
00078007C0
00078007C0
000F800780
000F000F80
000F001F00
000F001F00
001F007E00
001F01F800
001FFFE000
003E7F0000
003C000000
003C000000
007C000000
007C000000
0078000000
0078000000
00F8000000
00F0000000
00F0000000
01F0000000
01F0000000
01E0000000
03E0000000
07F0000000
3FFE000000
ENDCHAR

STARTCHAR Q
ENCODING 81
SWIDTH 722 0
DWIDTH 36 0
BBX 37 45 1 -11
BITMAP
000007C000
00007FF800
0001E03E00
0007800F00
000F000F80
001E000780
003C0007C0
00780003C0
00F00003E0
01F00003E0
03E00003E0
03E00003E0
07C00003E0
07C00003E0
0F800003E0
0F800007E0
1F000007C0
1F000007C0
1F00000FC0
3F00000FC0
3E00000F80
3E00001F80
3E00001F00
3E00003F00
3E00003E00
3E00007C00
3E00007C00
1E0000F800
1F0001F000
0F0003E000
0F8007C000
07C00F8000
03E03E0000
01FFF80000
003FC00000
0038000000
0070000000
00C0000000
0180000300
0700000600
0FFE000C00
1FFFE03800
3FFFFFE000
003FFF8000
0003FE0000
ENDCHAR

STARTCHAR R
ENCODING 82
SWIDTH 611 0
DWIDTH 31 0
BBX 34 33 -3 0
BITMAP
001FFFC000
0007FFF800
0003E0FC00
0003E03E00
0003C03E00
0003C01F00
0003C01F00
0007C01F00
0007801F00
0007801F00
0007803E00
000F003E00
000F007C00
000F00F800
001F01F000
001FFFC000
001FFF0000
003E1E0000
003C1E0000
003C1F0000
003C0F0000
007C0F0000
00780F8000
0078078000
00F8078000
00F007C000
00F003C000
00F003E000
01F003E000
01E001E000
03E001F000
07F001F800
3FFE00FF00
ENDCHAR

STARTCHAR S
ENCODING 83
SWIDTH 500 0
DWIDTH 25 0
BBX 30 35 -1 -1
BITMAP
0001F010
000FFE10
001E07F0
003C01F0
007800E0
007000E0
00F00060
00F00060
00F00040
00F80040
00F80040
007C0000
007E0000
003F0000
001F8000
001FC000
000FE000
0007F000
0003F800
0001FC00
0000FE00
00007E00
08003E00
08003F00
08001F00
08001F00
18001F00
18001E00
18001E00
1C001E00
3E003C00
3F007800
3F80F000
21FFE000
203F0000
ENDCHAR

STARTCHAR T
ENCODING 84
SWIDTH 556 0
DWIDTH 28 0
BBX 32 33 2 0
BITMAP
07FFFFFC
07FFFFFC
0781E03C
0601E01C
0C03E018
0803C018
0803C018
1003C010
1007C010
00078000
00078000
000F8000
000F0000
000F0000
000F0000
001F0000
001E0000
001E0000
003E0000
003C0000
003C0000
007C0000
007C0000
00780000
00780000
00F80000
00F00000
00F00000
01F00000
01F00000
03F00000
07F00000
3FFF0000
ENDCHAR

STARTCHAR U
ENCODING 85
SWIDTH 722 0
DWIDTH 36 0
BBX 39 34 3 -1
BITMAP
1FFF801FF8
03FC0007C0
01F0000380
01F0000300
01E0000300
01E0000300
03E0000200
03C0000600
03C0000600
03C0000600
07C0000C00
0780000C00
0780000C00
0F80000800
0F00001800
0F00001800
0F00001800
1E00003000
1E00003000
1E00003000
3E00002000
3C00006000
3C00006000
3C0000C000
3C0000C000
3C0000C000
3C00018000
3E00030000
1E00030000
1F00060000
0F801C0000
07E0780000
01FFF00000
007F800000
ENDCHAR

STARTCHAR V
ENCODING 86
SWIDTH 611 0
DWIDTH 31 0
BBX 33 34 5 -1
BITMAP
7FFC07FE00
07E001F000
07C001E000
07C001C000
07C0018000
07C0030000
0780030000
0780060000
07800C0000
0780180000
0780180000
0780300000
0780600000
0780C00000
0F80C00000
0F81800000
0F03000000
0F03000000
0F06000000
0F0C000000
0F18000000
0F18000000
0F30000000
0F60000000
1FC0000000
1FC0000000
1F80000000
1F00000000
1E00000000
1E00000000
1C00000000
1800000000
1000000000
1000000000
ENDCHAR

STARTCHAR W
ENCODING 87
SWIDTH 833 0
DWIDTH 42 0
BBX 44 34 5 -1
BITMAP
7FFDFFF8FFC0
0FE01F803F00
07C01F001C00
07800F001800
07800F003800
07801F003000
07803F006000
07803E006000
0F807E00C000
0F805E018000
0F00DE018000
0F019E030000
0F011E020000
0F031E060000
0F061E0C0000
0F061E080000
0F0C3E180000
0F183C300000
1F183C200000
1E303C600000
1E203CC00000
1E603CC00000
1EC03D800000
1E803F000000
1F803F000000
1F007E000000
1F007C000000
1E007C000000
3C0078000000
3C0070000000
380070000000
300060000000
300040000000
200040000000
ENDCHAR

STARTCHAR X
ENCODING 88
SWIDTH 611 0
DWIDTH 31 0
BBX 43 33 -5 0
BITMAP
000FFF01FFC0
0001F8007E00
0000F8007800
0000F8007000
00007800E000
00007801C000
00007C038000
00003C030000
00003C060000
00003C0C0000
00003E180000
00001E300000
00001E600000
00001FC00000
00001F800000
00000F000000
00000F000000
00000F800000
00001F800000
000037800000
000067C00000
0000C3C00000
000183C00000
000303C00000
000603E00000
000C01E00000
001801E00000
003001F00000
006001F00000
01C000F00000
03C000F80000
0FE001FC0000
3FF80FFF8000
ENDCHAR

STARTCHAR Y
ENCODING 89
SWIDTH 556 0
DWIDTH 28 0
BBX 32 33 3 0
BITMAP
1FFE0FFC
07F001F0
03E001C0
01E00180
01E00380
01F00300
00F00600
00F00C00
00F80C00
00781800
00783000
00786000
003C6000
003CC000
003D8000
003F8000
001F0000
001E0000
003E0000
003C0000
003C0000
003C0000
007C0000
00780000
00780000
00F80000
00F00000
00F00000
01F00000
01F00000
03F00000
07F00000
3FFF0000
ENDCHAR

STARTCHAR Z
ENCODING 90
SWIDTH 556 0
DWIDTH 28 0
BBX 33 33 -1 0
BITMAP
007FFFFF00
00FFFFFE00
00F0007C00
00C000FC00
018000F800
010001F000
010003E000
020007C000
00000FC000
00001F8000
00001F0000
00003E0000
00007C0000
0000F80000
0001F80000
0001F00000
0003E00000
0007C00000
000F800000
001F800000
001F000000
003E000000
007C000000
00F8000000
01F8001000
03F0002000
03E0002000
07C0006000
0F8000C000
1F0003C000
3F000FC000
3FFFFF8000
7FFFFF8000
ENDCHAR

STARTCHAR bracketleft
ENCODING 91
SWIDTH 389 0
DWIDTH 19 0
BBX 26 44 1 -10
BITMAP
0003FF00
0003FF00
00078000
00078000
00070000
00070000
000F0000
000E0000
000E0000
001E0000
001E0000
001C0000
001C0000
003C0000
00380000
00380000
00780000
00780000
00700000
00F00000
00F00000
00E00000
00E00000
01E00000
01E00000
01C00000
03C00000
03C00000
03800000
03800000
07800000
07000000
07000000
0F000000
0F000000
0E000000
1E000000
1E000000
1C000000
1C000000
3C000000
3C000000
3FF00000
7FF00000
ENDCHAR

STARTCHAR backslash
ENCODING 92
SWIDTH 278 0
DWIDTH 14 0
BBX 9 36 4 -1
BITMAP
6000
6000
2000
2000
3000
3000
3000
3000
3000
3000
1000
1000
1800
1800
1800
1800
1800
1800
0800
0800
0C00
0C00
0C00
0C00
0C00
0C00
0400
0400
0600
0600
0600
0600
0600
0600
0200
0300
ENDCHAR

STARTCHAR bracketright
ENCODING 93
SWIDTH 389 0
DWIDTH 19 0
BBX 26 44 -6 -10
BITMAP
0003FF00
0003FF00
00000F00
00000E00
00000E00
00001E00
00001C00
00001C00
00003C00
00003C00
00003800
00007800
00007800
00007000
00007000
0000F000
0000F000
0000E000
0001E000
0001E000
0001C000
0001C000
0003C000
00038000
00038000
00078000
00078000
00070000
000F0000
000F0000
000E0000
000E0000
001E0000
001E0000
001C0000
003C0000
003C0000
00380000
00780000
00780000
00700000
00700000
3FF00000
7FF00000
ENDCHAR

STARTCHAR asciicircum
ENCODING 94
SWIDTH 422 0
DWIDTH 21 0
BBX 24 18 0 16
BITMAP
000800
001800
003C00
003C00
006600
006700
00C300
01C380
018180
0300C0
0300E0
060060
0E0070
0C0030
1C0018
18001C
30000C
70000E
ENDCHAR

STARTCHAR underscore
ENCODING 95
SWIDTH 500 0
DWIDTH 25 0
BBX 29 3 -2 -6
BITMAP
3FFFFFE0
3FFFFFE0
3FFFFFE0
ENDCHAR

STARTCHAR quoteleft
ENCODING 96
SWIDTH 333 0
DWIDTH 17 0
BBX 11 11 8 23
BITMAP
0080
0300
0600
0C00
1800
1800
3C00
3E00
3E00
3E00
1C00
ENDCHAR

STARTCHAR a
ENCODING 97
SWIDTH 500 0
DWIDTH 25 0
BBX 25 23 0 -1
BITMAP
000F8E00
0038DE00
00707E00
01E03C00
01C03C00
03803C00
07003C00
0F003800
0E007800
1E007800
1C007800
3C00F000
3C00F000
3801F000
7801E000
7803E000
7807E000
780DE200
7C19C400
7C33CC00
3FE3F800
1FC3F000
0F01C000
ENDCHAR

STARTCHAR b
ENCODING 98
SWIDTH 500 0
DWIDTH 25 0
BBX 26 36 -1 -1
BITMAP
00060000
01FE0000
007C0000
003C0000
003C0000
00380000
00780000
00780000
00780000
00700000
00F00000
00F00000
00E00000
01E1F800
01E7FC00
01EC3E00
01D01E00
03E01F00
03E00F00
03C00F00
07800F00
07800F00
07800F00
07000E00
0F000E00
0F001E00
0F001C00
0E001C00
1E003800
1E003800
1C007000
3C00E000
3C01C000
3C038000
0F0E0000
03F80000
ENDCHAR

STARTCHAR c
ENCODING 99
SWIDTH 444 0
DWIDTH 22 0
BBX 22 23 0 -1
BITMAP
000FE0
003C70
00F038
01C038
038078
0700F8
0F0070
0E0000
1E0000
1C0000
3C0000
3C0000
780000
780000
780000
780000
780000
780060
7C00C0
3E0180
3F0700
1FFC00
07F000
ENDCHAR

STARTCHAR d
ENCODING 100
SWIDTH 500 0
DWIDTH 25 0
BBX 29 36 0 -1
BITMAP
00000060
00001FE0
000007C0
000003C0
000003C0
000003C0
00000380
00000780
00000780
00000700
00000F00
00000F00
00000F00
000F8E00
0038FE00
00707E00
00E03C00
01C03C00
03803C00
07003C00
0F003800
0E007800
1E007800
1C00F000
3C00F000
3C01F000
7801F000
7802E000
7807E000
7805E000
7809C200
7C19C400
3C73C800
3FE3F000
1F83E000
0F01C000
ENDCHAR

STARTCHAR e
ENCODING 101
SWIDTH 444 0
DWIDTH 22 0
BBX 23 23 0 -1
BITMAP
0007F0
001C78
00703C
00E03C
01C03C
038038
078078
0F00F0
0F01E0
1E03C0
1E0F00
1EF800
3F8000
3C0000
3C0000
3C0000
3C0010
3E0030
1F0040
1F8180
0FFF00
07FC00
01E000
ENDCHAR

STARTCHAR f
ENCODING 102
SWIDTH 278 0
DWIDTH 14 0
BBX 35 46 -10 -11
BITMAP
0000001F00
0000007180
000000C3C0
00000183C0
0000038180
0000070000
0000070000
00000E0000
00000E0000
00001E0000
00001C0000
00003C0000
00007C0000
0007FF8000
0007FF8000
0000780000
0000780000
0000700000
0000F00000
0000F00000
0000F00000
0000E00000
0001E00000
0001E00000
0001E00000
0001C00000
0003C00000
0003C00000
0003C00000
0003C00000
0007800000
0007800000
0007800000
0007000000
000F000000
000E000000
000E000000
001E000000
001C000000
001C000000
0038000000
0030000000
3860000000
3840000000
3980000000
1F00000000
ENDCHAR

STARTCHAR g
ENCODING 103
SWIDTH 500 0
DWIDTH 25 0
BBX 31 33 -3 -11
BITMAP
0007F800
003E1FF8
00780FF8
00F007F8
01E00780
01E00780
03E00780
03C00780
03C00F80
03C00F00
03C01F00
01E01E00
00E03C00
0078F000
001FC000
00380000
00600000
00C00000
01E00000
01FC0000
01FFC000
00FFF800
030FFE00
0E00FF00
1C001F00
38000F00
38000700
38000700
3C000600
1C000C00
1F007800
07FFE000
007E0000
ENDCHAR

STARTCHAR h
ENCODING 104
SWIDTH 500 0
DWIDTH 25 0
BBX 25 35 -1 -1
BITMAP
007E0000
01FE0000
003E0000
001C0000
003C0000
003C0000
00380000
00780000
00780000
00700000
00700000
00F00000
00F03C00
00E0FE00
01E1FE00
01E31E00
01C61E00
01CC1E00
03C81C00
03D03C00
03B03C00
07A03C00
07C03800
07C07800
0F807800
0F807000
0F00F000
0F00F000
1E00E000
1E00E200
1C01E600
3C01EC00
3C01F800
3C01F000
0000C000
ENDCHAR

STARTCHAR i
ENCODING 105
SWIDTH 278 0
DWIDTH 14 0
BBX 14 32 0 0
BITMAP
0070
00F8
00F8
00F8
0070
0000
0000
0000
0000
0000
03E0
3FC0
03C0
03C0
03C0
0380
0780
0780
0700
0F00
0F00
0F00
0E00
1E00
1E00
1C00
3C00
3C40
3CC0
3D80
3F00
3C00
ENDCHAR

STARTCHAR j
ENCODING 106
SWIDTH 278 0
DWIDTH 14 0
BBX 25 43 -10 -11
BITMAP
00000E00
00001F00
00001F00
00001F00
00000E00
00000000
00000000
00000000
00000000
00000000
00007C00
0007F800
00007800
00007800
00007800
00007000
0000F000
0000F000
0000E000
0001E000
0001E000
0001E000
0003C000
0003C000
0003C000
00038000
00078000
00078000
00070000
000F0000
000F0000
000F0000
000E0000
001E0000
001E0000
001C0000
003C0000
00380000
00300000
38700000
78E00000
71C00000
3F000000
ENDCHAR

STARTCHAR k
ENCODING 107
SWIDTH 444 0
DWIDTH 22 0
BBX 27 36 -1 -1
BITMAP
001E0000
01FE0000
001E0000
001E0000
001C0000
003C0000
003C0000
00380000
00780000
00780000
00780000
00700000
00F00000
00F1FFC0
00E03C00
01E03000
01E06000
01E0C000
01C18000
03C20000
03C40000
038E0000
03BE0000
07EE0000
07CE0000
078F0000
0F0F0000
0F070000
0E078000
0E078000
1E078600
1E038C00
1C03D800
3C03F000
3C01E000
00008000
ENDCHAR

STARTCHAR l
ENCODING 108
SWIDTH 278 0
DWIDTH 14 0
BBX 16 36 0 -1
BITMAP
0006
01FC
027C
003C
003C
0038
0078
0078
0078
00F0
00F0
00F0
00E0
01E0
01E0
01E0
03C0
03C0
03C0
0380
0780
0780
0780
0F00
0F00
0F00
0E00
1E00
1E00
1E20
1C20
3C40
3C80
3F00
3E00
0800
ENDCHAR

STARTCHAR m
ENCODING 109
SWIDTH 722 0
DWIDTH 36 0
BBX 36 23 -1 -1
BITMAP
0060780780
1FE0FC0FC0
03E3FC3FC0
01E63C23C0
01C43C43C0
03C83C83C0
03D0390380
03B07B0780
07A07A0780
07C0740780
0740740F00
0780F80F00
0F80F80F00
0F00F00E00
0F01F01E00
1E01E01E00
1E01E01C00
1E01C03C40
1C03C03CC0
3C03C03D80
3C03803F00
3807803E00
0000001800
ENDCHAR

STARTCHAR n
ENCODING 110
SWIDTH 500 0
DWIDTH 25 0
BBX 25 23 -1 -1
BITMAP
00703C00
1FE0FE00
03E1FE00
01E31E00
01C61E00
01CC1E00
03C81C00
03D03C00
03B03C00
07A03C00
07C03800
07C07800
0F807800
0F807000
0F00F000
0F00F000
1E00E000
1E00E200
1C01E600
3C01EC00
3C01F800
3C01F000
0000C000
ENDCHAR

STARTCHAR o
ENCODING 111
SWIDTH 500 0
DWIDTH 25 0
BBX 25 23 0 -1
BITMAP
000FE000
00387000
00E03800
01C01C00
03801C00
07801E00
0F001E00
1F001E00
1E001E00
3E001E00
3C003E00
3C003E00
7C003C00
78007C00
78007800
78007800
7800F000
7801E000
3801E000
3C038000
1C070000
0F1E0000
03F80000
ENDCHAR

STARTCHAR p
ENCODING 112
SWIDTH 500 0
DWIDTH 25 0
BBX 32 33 -7 -11
BITMAP
000383E0
007F8FF8
000F98F8
0007A07C
0007403C
000FC03C
000F803C
000F003C
000F003C
001E003C
001E0038
001C0078
003C0078
003C0070
003800F0
003800E0
007801C0
007803C0
00700380
00F00700
00F81E00
00FC3800
00EFE000
01E00000
01E00000
01C00000
03C00000
03C00000
03C00000
07800000
07800000
0F800000
7FF80000
ENDCHAR

STARTCHAR q
ENCODING 113
SWIDTH 500 0
DWIDTH 25 0
BBX 26 33 -1 -11
BITMAP
0007C300
001C6F00
00783F00
00F01E00
01E01E00
03C01E00
03801E00
07801C00
0F003C00
0F003C00
1E003C00
1E007800
1E007800
3C00F800
3C00F000
3C01F000
3C02F000
3C06F000
3E0CE000
3E19E000
1FF1E000
0FE1C000
0783C000
0003C000
0003C000
00038000
00078000
00078000
00070000
000F0000
000F0000
001F8000
01FFE000
ENDCHAR

STARTCHAR r
ENCODING 114
SWIDTH 389 0
DWIDTH 19 0
BBX 23 22 -1 0
BITMAP
007030
0FF078
03E1F8
01E3F8
01E678
01C470
03C800
03D000
03B000
03A000
07C000
074000
078000
0F8000
0F0000
0F0000
0E0000
1E0000
1E0000
1C0000
3C0000
3C0000
ENDCHAR

STARTCHAR s
ENCODING 115
SWIDTH 389 0
DWIDTH 19 0
BBX 22 23 -2 -1
BITMAP
003F10
0071F0
00E0F0
01C060
01C060
01C020
01E020
01F020
00F800
00F800
007C00
003E00
003F00
001F00
000F00
100780
100780
100780
180700
180700
3C0600
3E1C00
23F000
ENDCHAR

STARTCHAR t
ENCODING 116
SWIDTH 278 0
DWIDTH 14 0
BBX 15 28 1 0
BITMAP
0030
0020
0060
00E0
01E0
03C0
0FFC
3FFC
0380
0780
0780
0780
0700
0F00
0F00
0E00
1E00
1E00
1E00
1C00
3C00
3C00
3840
3840
7880
7900
7E00
3C00
ENDCHAR

STARTCHAR u
ENCODING 117
SWIDTH 500 0
DWIDTH 25 0
BBX 25 23 0 -1
BITMAP
01800200
07C01E00
0FC01E00
13C01C00
23C03C00
63803C00
03803800
07807800
07807800
0700F800
0F00F000
0F017000
0E01F000
0E02E000
1E04E000
1E05E000
1C09E000
3C11C200
3C33C400
3C63C800
3FC3F000
1F03E000
1E01C000
ENDCHAR

STARTCHAR v
ENCODING 118
SWIDTH 444 0
DWIDTH 22 0
BBX 24 23 0 -1
BITMAP
078038
7F803C
0F803C
07803C
07C01C
03C00C
03C008
03C018
03C010
03C030
01E060
01E040
01E0C0
01E180
01E300
01E600
01E400
01E800
01F000
01F000
01E000
01C000
008000
ENDCHAR

STARTCHAR w
ENCODING 119
SWIDTH 667 0
DWIDTH 33 0
BBX 36 23 -1 -1
BITMAP
0380040380
3F800C03C0
07C00C03C0
03C01C01C0
03C03C00C0
01C03E00C0
01C07E0080
01C0DE0180
01E09E0100
01E19E0200
01E11E0600
01E31E0400
01E60E0C00
01E40E1800
00EC0E1000
00E80E2000
00F80F4000
00F00FC000
00E00F8000
00E00F0000
00C00E0000
00C00C0000
0080040000
ENDCHAR

STARTCHAR x
ENCODING 120
SWIDTH 444 0
DWIDTH 22 0
BBX 26 23 -3 -1
BITMAP
00F00700
07F81F80
007C3F80
003C6300
001C4000
001E8000
001F8000
001F0000
000E0000
000F0000
000F0000
000F0000
001F0000
00178000
00378000
00278000
00478200
00C38200
0083C400
3903C800
7E01F000
3C01E000
1800C000
ENDCHAR

STARTCHAR y
ENCODING 121
SWIDTH 444 0
DWIDTH 22 0
BBX 28 33 -5 -11
BITMAP
001801C0
01FC03E0
03FC03E0
003C01E0
001E00E0
001E0060
001E0040
001E00C0
001E0080
001E0180
001E0300
000E0200
000E0600
000E0C00
000E0800
000F1000
000F3000
000F6000
000F4000
000F8000
000F0000
000F0000
00060000
00040000
00080000
00100000
00200000
00600000
10C00000
39800000
7F000000
7C000000
38000000
ENDCHAR

STARTCHAR z
ENCODING 122
SWIDTH 389 0
DWIDTH 19 0
BBX 24 22 -3 0
BITMAP
01FFFE
01FFFC
03FFF8
030030
020060
0400C0
000180
000100
000200
000400
000800
001000
003000
006000
00C000
018010
030020
060020
0C00E0
0FFFC0
1FFFC0
3FFFC0
ENDCHAR

STARTCHAR braceleft
ENCODING 123
SWIDTH 400 0
DWIDTH 20 0
BBX 23 46 3 -11
BITMAP
000004
000030
0000C0
000380
000700
000E00
000E00
001C00
001C00
003C00
003C00
003C00
003C00
003800
007800
007800
007000
007000
006000
00C000
018000
060000
380000
380000
0E0000
060000
030000
038000
038000
038000
078000
070000
0F0000
0F0000
1E0000
1E0000
3C0000
3C0000
380000
380000
380000
180000
1C0000
0C0000
070000
008000
ENDCHAR

STARTCHAR bar
ENCODING 124
SWIDTH 200 0
DWIDTH 10 0
BBX 5 46 3 -11
BITMAP
60
60
60
60
60
60
60
60
60
60
60
60
60
60
60
60
60
60
60
60
60
60
60
60
60
60
60
60
60
60
60
60
60
60
60
60
60
60
60
60
60
60
60
60
60
60
ENDCHAR

STARTCHAR braceright
ENCODING 125
SWIDTH 400 0
DWIDTH 20 0
BBX 23 46 -6 -11
BITMAP
000200
0001C0
0000E0
000070
000030
000038
000038
000038
000078
000078
0000F0
0000F0
0001F0
0001E0
0001C0
0003C0
0003C0
000380
000380
000180
0000C0
0000E0
000038
000038
0000C0
000300
000600
000E00
001C00
001C00
003C00
003C00
003C00
007C00
007800
007800
007800
007800
007000
006000
00E000
01C000
018000
070000
1C0000
600000
ENDCHAR

STARTCHAR asciitilde
ENCODING 126
SWIDTH 541 0
DWIDTH 27 0
BBX 27 8 1 13
BITMAP
07E00040
0FF800C0
1FFE00C0
3CFF8180
303FE380
200FFF00
6003FE00
4000FC00
ENDCHAR

STARTCHAR space
ENCODING 160
SWIDTH 250 0
DWIDTH 15 0
BBX 0 0 0 0
BITMAP
ENDCHAR

STARTCHAR exclamdown
ENCODING 161
SWIDTH 389 0
DWIDTH 19 0
BBX 15 35 2 -11
BITMAP
0038
007C
007C
007C
0038
0000
0000
0000
0000
0020
0040
0040
0040
00C0
00C0
0080
0180
0180
0380
0380
0300
0700
0700
0700
0F00
0E00
0E00
1E00
1E00
1E00
3C00
3C00
3C00
3800
1000
ENDCHAR

STARTCHAR cent
ENCODING 162
SWIDTH 500 0
DWIDTH 25 0
BBX 22 41 2 -9
BITMAP
000040
000040
0000C0
000080
000080
000180
000100
000100
000300
000300
000FE0
007E70
00E638
01C478
038478
070CF0
0F0870
1E0800
1E1800
3C1800
3C1000
381000
783000
782000
782000
786000
784020
7C4040
3CC080
3EC300
1FFE00
0FF800
018000
010000
010000
030000
020000
020000
020000
060000
040000
ENDCHAR

STARTCHAR sterling
ENCODING 163
SWIDTH 500 0
DWIDTH 25 0
BBX 28 35 -1 -1
BITMAP
00000F00
00003FC0
0000E3C0
0001C3E0
0001C1E0
000381C0
00078000
00078000
000F0000
000F0000
000F0000
001F0000
001F0000
001E0000
001E0000
003E0000
07FFF800
0FFFF800
003C0000
003C0000
007C0000
00780000
00780000
00780000
00700000
00700000
00700000
00600000
0FE00000
1FF80100
31FF0600
21FFFC00
219FF800
330FF000
1C03C000
ENDCHAR

STARTCHAR currency
ENCODING 164
SWIDTH 500 0
DWIDTH 25 0
BBX 28 24 0 5
BITMAP
10000080
381F81C0
1C7FF380
0FE07F00
07801E00
07000E00
0E000700
0C000300
0C000300
18000180
18000180
18000180
18000180
18000180
18000180
0C000300
0C000300
06000600
07000E00
07801E00
0FE07F00
1C7FF380
381F81C0
10000080
ENDCHAR

STARTCHAR yen
ENCODING 165
SWIDTH 500 0
DWIDTH 25 0
BBX 35 33 -1 0
BITMAP
01FFC0FF80
007E003E00
003C001800
003C003800
003E003000
001E006000
001E00C000
001E018000
000F018000
000F030000
000F060000
00078C0000
00078C0000
0007980000
0003F00000
0FFFFFF800
1FFFFFF800
0003C00000
0003C00000
0007800000
0007800000
0007800000
3FFFFFF000
3FFFFFE000
000F000000
000F000000
001F000000
001E000000
001E000000
003E000000
003E000000
007F000000
03FFC00000
ENDCHAR

STARTCHAR brokenbar
ENCODING 166
SWIDTH 200 0
DWIDTH 10 0
BBX 5 46 3 -11
BITMAP
60
60
60
60
60
60
60
60
60
60
60
60
60
60
60
00
00
00
00
00
00
00
00
00
00
00
00
00
00
00
00
60
60
60
60
60
60
60
60
60
60
60
60
60
60
60
ENDCHAR

STARTCHAR section
ENCODING 167
SWIDTH 500 0
DWIDTH 25 0
BBX 28 44 -1 -10
BITMAP
00007E00
00018780
000303C0
000201C0
000401E0
000401E0
000C00C0
000C0000
000C0000
000E0000
000E0000
00070000
00078000
00078000
0003C000
003FE000
0061F000
00C0F800
00807800
01803C00
01801C00
01801C00
01C00C00
01C00C00
00E00C00
00F00C00
00781800
007C3000
003DE000
001E0000
000F0000
00070000
00078000
00038000
00038000
00018000
10018000
38018000
38018000
3C010000
3C020000
1C060000
0F0C0000
03F00000
ENDCHAR

STARTCHAR dieresis
ENCODING 168
SWIDTH 333 0
DWIDTH 17 0
BBX 18 5 5 27
BITMAP
1C0E00
3E1F00
3E1F00
3E1F00
1C0E00
ENDCHAR

STARTCHAR copyright
ENCODING 169
SWIDTH 760 0
DWIDTH 38 0
BBX 37 35 2 -1
BITMAP
0001F80000
000FFF8000
003801E000
00E0003800
0180000C00
0300000600
0601FE2300
0C0703E180
080E00E080
18380060C0
1038006040
3070002060
20F0002060
20E0000020
20E0000030
61E0000030
61E0000030
61E0000030
61E0000030
61E0000030
21E0000020
20F0000020
30F0000060
3078001060
1038002040
183C0040C0
080F018180
0C07FF0180
0600F80300
0300000600
0180001C00
00E0003800
003801E000
000FFF8000
0000F80000
ENDCHAR

STARTCHAR ordfeminine
ENCODING 170
SWIDTH 276 0
DWIDTH 14 0
BBX 17 14 2 20
BITMAP
00EE00
039E00
071E00
0E1E00
1C1C00
1C1C00
381C00
383C00
383C00
787800
78F900
79BA00
3F3C00
3C3800
ENDCHAR

STARTCHAR guillemotleft
ENCODING 171
SWIDTH 500 0
DWIDTH 25 0
BBX 25 23 0 -1
BITMAP
000C0200
00180600
00300C00
00701800
00E03000
01C07000
03C0E000
0781C000
07038000
0E078000
1E0F0000
3C1F0000
1E0F0000
1E0F0000
0E070000
0E078000
07038000
07038000
03018000
0301C000
0100C000
01804000
00804000
ENDCHAR

STARTCHAR logicalnot
ENCODING 172
SWIDTH 675 0
DWIDTH 34 0
BBX 30 10 3 12
BITMAP
3FFFFFF0
3FFFFFF0
00000030
00000030
00000030
00000030
00000030
00000030
00000030
00000030
ENDCHAR

STARTCHAR hyphen
ENCODING 173
SWIDTH 333 0
DWIDTH 17 0
BBX 16 3 0 9
BITMAP
3FFE
3FFC
3FFC
ENDCHAR

STARTCHAR registered
ENCODING 174
SWIDTH 760 0
DWIDTH 38 0
BBX 37 35 2 -1
BITMAP
0001F80000
000FFF8000
003801E000
00E0007000
0180001C00
0300000E00
0600000300
047FFC0300
0C1E1F0180
181E0780C0
101E07C0C0
301E03C060
301E03C060
201E03C020
201E03C020
601E078030
601E1E0030
601FF80030
601E780030
601E3C0030
201E1E0020
201E1E0020
301E0F0060
301E078060
101E038040
181E03C0C0
081F01E180
0C7FC0F980
0600000300
0300000600
0180001C00
00E0003000
003801E000
000FFF8000
0000F80000
ENDCHAR

STARTCHAR macron
ENCODING 175
SWIDTH 333 0
DWIDTH 17 0
BBX 18 3 5 28
BITMAP
3FFF00
7FFF00
7FFF00
ENDCHAR

STARTCHAR degree
ENCODING 176
SWIDTH 400 0
DWIDTH 20 0
BBX 19 15 3 19
BITMAP
01F000
07FC00
0E0E00
1C0700
180300
300180
300180
300180
300180
380180
180300
1C0700
0E0E00
07FC00
01F000
ENDCHAR

STARTCHAR plusminus
ENCODING 177
SWIDTH 675 0
DWIDTH 34 0
BBX 30 26 3 4
BITMAP
00030000
00030000
00030000
00030000
00030000
00030000
00030000
00030000
00030000
00030000
00030000
00030000
3FFFFFF0
3FFFFFF0
00030000
00030000
00030000
00030000
00030000
00030000
00030000
00030000
00030000
00030000
3FFFFFF0
3FFFFFF0
ENDCHAR

STARTCHAR twosuperior
ENCODING 178
SWIDTH 300 0
DWIDTH 15 0
BBX 17 17 2 17
BITMAP
00F800
03FC00
061E00
040E00
000E00
000E00
000C00
001800
003800
007000
00C000
018000
030000
060800
181800
3FF000
7FF000
ENDCHAR

STARTCHAR threesuperior
ENCODING 179
SWIDTH 300 0
DWIDTH 15 0
BBX 16 18 2 16
BITMAP
00F0
03F8
023C
001C
001C
0018
0070
03C0
03F0
00F0
0078
0038
0038
0038
0070
3860
3FC0
1E00
ENDCHAR

STARTCHAR acute
ENCODING 180
SWIDTH 333 0
DWIDTH 17 0
BBX 12 8 8 26
BITMAP
0F80
0F80
0F00
1E00
1C00
1800
3000
2000
ENDCHAR

STARTCHAR mu
ENCODING 181
SWIDTH 500 0
DWIDTH 25 0
BBX 30 33 -4 -11
BITMAP
001E00E0
001C01E0
003C01E0
003C01C0
003C03C0
003803C0
007803C0
00780380
00700780
00F00780
00F00700
00F00F00
00E00F00
01E00F00
01E01E00
01E01E00
01C03E00
03C03E10
03C05C30
03E09E20
07F31E60
06FE1FC0
04F80F00
0C000000
0C000000
0C000000
1C000000
1C000000
3C000000
38000000
78000000
78000000
78000000
ENDCHAR

STARTCHAR paragraph
ENCODING 182
SWIDTH 523 0
DWIDTH 26 0
BBX 29 44 3 -11
BITMAP
001FFFE0
00FF8300
03FF8300
07FF8200
0FFF8600
1FFF0600
1FFF0400
3FFF0C00
3FFE0C00
3FFE0800
3FFE1800
7FFE1800
7FFC1800
3FFC1000
3FFC3000
1FF83000
0FF82000
07F86000
00186000
00106000
00304000
0030C000
0020C000
00608000
00618000
00618000
00418000
00C10000
00C30000
00830000
01820000
01860000
01860000
01060000
03040000
030C0000
020C0000
06080000
06180000
06180000
04180000
0C100000
0C300000
08300000
ENDCHAR

STARTCHAR periodcentered
ENCODING 183
SWIDTH 250 0
DWIDTH 13 0
BBX 7 5 4 14
BITMAP
38
7C
7C
7C
38
ENDCHAR

STARTCHAR cedilla
ENCODING 184
SWIDTH 333 0
DWIDTH 17 0
BBX 15 11 -4 -10
BITMAP
0060
00C0
00E0
01F8
03F8
007C
007C
007C
0078
01F0
3FC0
ENDCHAR

STARTCHAR onesuperior
ENCODING 185
SWIDTH 300 0
DWIDTH 15 0
BBX 15 18 2 16
BITMAP
0018
01F8
0070
0070
0070
0060
00E0
00E0
00C0
01C0
01C0
0180
0380
0380
0300
0700
0700
3FC0
ENDCHAR

STARTCHAR ordmasculine
ENCODING 186
SWIDTH 310 0
DWIDTH 16 0
BBX 17 15 3 19
BITMAP
00F000
039C00
070C00
0E0E00
1E0E00
1C0E00
3C0E00
3C1E00
381E00
381C00
383C00
383800
187000
1CE000
078000
ENDCHAR

STARTCHAR guillemotright
ENCODING 187
SWIDTH 500 0
DWIDTH 25 0
BBX 25 23 0 -1
BITMAP
0100C000
01804000
01806000
00C06000
00C07000
00E07000
00E03800
00703800
00783C00
00783C00
007C1E00
007C1E00
00783C00
00F07800
01E0F000
03C0E000
0381C000
07038000
0E030000
1C060000
180C0000
30180000
60100000
ENDCHAR

STARTCHAR onequarter
ENCODING 188
SWIDTH 750 0
DWIDTH 38 0
BBX 35 35 2 -1
BITMAP
0008000C00
01F8000C00
0070001800
0070003000
0070003000
0060006000
00E000C000
00E000C000
00C0018000
01C0030000
01C0030000
0180060000
03800E0000
03800C0000
0300180000
0700380000
0700300000
3FC0600180
0000E00380
0000C00700
0001800F00
0003801F00
0003003600
000600CE00
0006018E00
000C030C00
0018061C00
00180C1C00
00300FFF00
00601FFE00
0060003800
00C0003000
0180007000
0180007000
0300000000
ENDCHAR

STARTCHAR onehalf
ENCODING 189
SWIDTH 750 0
DWIDTH 38 0
BBX 34 34 2 -1
BITMAP
0070003000
01F0003000
0070006000
006000C000
00E000C000
00E0018000
00C0030000
01C0030000
01C0060000
01800C0000
03800C0000
0380180000
0300300000
0700300000
0700600000
0700C00000
3FC0C07C00
000181FE00
0003030F00
0003020700
0006000700
000C000700
000C000600
0018000C00
0038001C00
0030003800
0060006000
00E000C000
00C0018000
0180030400
03800C0C00
03001FF800
06003FF800
0E00000000
ENDCHAR

STARTCHAR threequarters
ENCODING 190
SWIDTH 750 0
DWIDTH 38 0
BBX 35 35 2 -1
BITMAP
00F0000C00
03F8001800
023C003800
001C003000
001C006000
0018006000
007000C000
03C0018000
03F0018000
00F0030000
0078060000
0038060000
00380C0000
00381C0000
0070180000
3860300000
3FC0700080
1E00600180
0000C00380
0001C00700
0001800F00
0003001F00
0007003600
000600E600
000C01CE00
000C038C00
0018070C00
00300E1C00
00300FFF00
00601FFF00
00C0003800
00C0003000
0180003000
0300007000
0300000000
ENDCHAR

STARTCHAR questiondown
ENCODING 191
SWIDTH 500 0
DWIDTH 25 0
BBX 20 35 1 -11
BITMAP
0001C0
0003E0
0003E0
0003E0
0001C0
000000
000000
000000
000000
000100
000100
000100
000200
000200
000400
000C00
001800
003000
007000
01E000
03C000
078000
0F0000
1E0000
3E0000
3C0000
780000
780300
780780
780780
380380
380380
1C0300
0F0E00
03F800
ENDCHAR

STARTCHAR Agrave
ENCODING 192
SWIDTH 611 0
DWIDTH 31 0
BBX 34 44 -4 0
BITMAP
0000007C00
0000003C00
0000003E00
0000001E00
0000000E00
0000000700
0000000300
0000000100
0000000080
0000000000
0000000C00
0000000C00
0000001800
0000003800
0000003800
0000007800
000000F800
000001F800
000001F800
0000037800
0000067800
00000C7800
00000CF800
000018F000
000030F000
000060F000
000060F000
0000C0F000
000180F000
000100F000
000300F000
0007FFF000
000FFFF000
000801F000
001801E000
003001E000
006001E000
006001E000
00C001E000
018001E000
038001E000
078003E000
0FC007F000
3FE03FFE00
ENDCHAR

STARTCHAR Aacute
ENCODING 193
SWIDTH 611 0
DWIDTH 31 0
BBX 37 44 -4 0
BITMAP
00000003E0
00000003E0
00000007C0
0000000780
0000000700
0000000E00
0000000C00
0000000800
0000000800
0000000000
0000000C00
0000000C00
0000001800
0000003800
0000003800
0000007800
000000F800
000001F800
000001F800
0000037800
0000067800
00000C7800
00000CF800
000018F000
000030F000
000060F000
000060F000
0000C0F000
000180F000
000100F000
000300F000
0007FFF000
000FFFF000
000801F000
001801E000
003001E000
006001E000
006001E000
00C001E000
018001E000
038001E000
078003E000
0FC007F000
3FE03FFE00
ENDCHAR

STARTCHAR Acircumflex
ENCODING 194
SWIDTH 611 0
DWIDTH 31 0
BBX 38 43 -4 0
BITMAP
00000003E0
00000007E0
0000000FE0
0000001CE0
0000003860
0000006030
0000008010
0000010000
0000000000
0000000C00
0000000C00
0000001800
0000003800
0000003800
0000007800
000000F800
000001F800
000001F800
0000037800
0000067800
00000C7800
00000CF800
000018F000
000030F000
000060F000
000060F000
0000C0F000
000180F000
000100F000
000300F000
0007FFF000
000FFFF000
000801F000
001801E000
003001E000
006001E000
006001E000
00C001E000
018001E000
038001E000
078003E000
0FC007F000
3FE03FFE00
ENDCHAR

STARTCHAR Atilde
ENCODING 195
SWIDTH 611 0
DWIDTH 31 0
BBX 39 42 -4 0
BITMAP
000000F008
000001FC08
000001FF08
0000021FF8
00000207F0
00000201E0
0000000000
0000000000
0000000C00
0000000C00
0000001800
0000003800
0000003800
0000007800
000000F800
000001F800
000001F800
0000037800
0000067800
00000C7800
00000CF800
000018F000
000030F000
000060F000
000060F000
0000C0F000
000180F000
000100F000
000300F000
0007FFF000
000FFFF000
000801F000
001801E000
003001E000
006001E000
006001E000
00C001E000
018001E000
038001E000
078003E000
0FC007F000
3FE03FFE00
ENDCHAR

STARTCHAR Adieresis
ENCODING 196
SWIDTH 611 0
DWIDTH 31 0
BBX 40 42 -5 0
BITMAP
0000007038
000000F87C
000000F87C
000000F87C
0000007038
0000000000
0000000000
0000000000
0000000400
0000000C00
0000000C00
0000001C00
0000003C00
0000007C00
0000007C00
000000FC00
000001F800
0000037800
0000027800
0000067800
00000C7800
0000187800
0000187800
0000307800
000060F800
0000C0F800
0000C0F800
000180F000
000300F000
0003FFF000
0007FFF000
000C00F000
001800F000
001000F000
003000F000
006001F000
00C001F000
00C001E000
018001F000
038001F000
0FC003F800
3FF01FFF00
ENDCHAR

STARTCHAR Aring
ENCODING 197
SWIDTH 611 0
DWIDTH 31 0
BBX 37 44 -4 0
BITMAP
0000000380
0000000FC0
0000001860
0000001030
0000003030
0000003030
0000001030
0000001860
0000000FC0
0000000100
0000000400
0000000C00
0000001C00
0000003C00
0000003800
0000007800
000000F800
000000F800
000001F800
0000037800
0000067800
0000047800
00000CF800
000018F800
000030F800
000020F000
000060F000
0000C0F000
000180F000
000100F000
000300F000
0007FFF000
000FFFF000
000C01F000
001801F000
003001E000
006001E000
006001E000
00C001E000
018001E000
038001E000
078003E000
0FC007F000
3FE03FFE00
ENDCHAR

STARTCHAR AE
ENCODING 198
SWIDTH 889 0
DWIDTH 44 0
BBX 51 33 -4 0
BITMAP
0000007FFFFF80
0000001FFFFF80
0000000DE00780
0000001BE00380
0000001BC00300
00000033C00100
00000063C00100
000000C7800100
00000187800000
00000107800000
0000030F804000
0000060F004000
00000C0F008000
0000181F018000
0000301E038000
0000301FFF8000
0000601FFF0000
0000C03E070000
0001803C030000
0003FFFC020000
0003FFFC020000
00060078020000
000C0078000000
001800F8000000
003000F0000800
006000F0001800
006000F0003000
00C001F0003000
018001E0006000
038001E001E000
078003E007E000
0FC007FFFFC000
3FE03FFFFFC000
ENDCHAR

STARTCHAR Ccedilla
ENCODING 199
SWIDTH 667 0
DWIDTH 33 0
BBX 35 45 2 -11
BITMAP
00000F8080
0000FFF980
0003C01F80
000F000F80
001E000700
007C000700
00F8000300
01F0000300
01E0000200
03E0000200
07C0000200
07C0000000
0F80000000
0F80000000
1F00000000
1F00000000
1F00000000
3E00000000
3E00000000
3E00000000
3E00000000
3E00000000
3E00000000
3E00000000
3E00000000
3E00000000
1F00000000
1F00001000
0F80003000
0F80006000
07C000C000
03E0018000
01F80F0000
007FFC0000
001FE00000
0006000000
0007000000
000FC00000
001FC00000
0003E00000
0003E00000
0003E00000
0003C00000
000F800000
01FE000000
ENDCHAR

STARTCHAR Egrave
ENCODING 200
SWIDTH 611 0
DWIDTH 31 0
BBX 36 43 -3 0
BITMAP
00003E0000
00003E0000
00001E0000
00000F0000
0000070000
0000030000
0000018000
0000008000
0000000000
0000000000
001FFFFFC0
0003FFFFC0
0003E007C0
0003E001C0
0003C00180
0003C00080
0003C00080
0007C00080
0007800000
0007800000
000F802000
000F004000
000F004000
001F00C000
001F01C000
001FFF8000
001FFF8000
003E038000
003C010000
003C010000
007C010000
0078010000
0078000000
0078000000
00F8000400
00F0000400
00F0000C00
01F0001800
01E0003800
01E0007800
03F003F000
07FFFFF000
3FFFFFF000
ENDCHAR

STARTCHAR Eacute
ENCODING 201
SWIDTH 611 0
DWIDTH 31 0
BBX 36 43 -3 0
BITMAP
000000F800
000001F000
000001E000
000001C000
0000038000
0000038000
0000030000
0000020000
0000000000
0000000000
001FFFFFC0
0003FFFFC0
0003E007C0
0003E001C0
0003C00180
0003C00080
0003C00080
0007C00080
0007800000
0007800000
000F802000
000F004000
000F004000
001F00C000
001F01C000
001FFF8000
001FFF8000
003E038000
003C010000
003C010000
007C010000
0078010000
0078000000
0078000000
00F8000400
00F0000400
00F0000C00
01F0001800
01E0003800
01E0007800
03F003F000
07FFFFF000
3FFFFFF000
ENDCHAR

STARTCHAR Ecircumflex
ENCODING 202
SWIDTH 611 0
DWIDTH 31 0
BBX 36 43 -3 0
BITMAP
0000007800
000000F800
000001F800
000003BC00
0000071C00
00000C0C00
0000100400
0000200200
0000000000
0000000000
001FFFFFC0
0003FFFFC0
0003E007C0
0003E001C0
0003C00180
0003C00080
0003C00080
0007C00080
0007800000
0007800000
000F802000
000F004000
000F004000
001F00C000
001F01C000
001FFF8000
001FFF8000
003E038000
003C010000
003C010000
007C010000
0078010000
0078000000
0078000000
00F8000400
00F0000400
00F0000C00
01F0001800
01E0003800
01E0007800
03F003F000
07FFFFF000
3FFFFFF000
ENDCHAR

STARTCHAR Edieresis
ENCODING 203
SWIDTH 611 0
DWIDTH 31 0
BBX 36 42 -3 0
BITMAP
0000381C00
00007C3E00
00007C3E00
00007C3E00
0000381C00
0000000000
0000000000
0000000000
0000000000
003FFFFFE0
0007FFFFC0
0003E007C0
0003C001C0
0003C001C0
0003C00080
0007C00080
0007800080
0007800000
000F800000
000F002000
000F004000
000F004000
001F00C000
001E018000
001FFF8000
003FFF8000
003C038000
003C030000
007C010000
007C010000
0078020000
0078000000
00F8000000
00F0000400
00F0000400
01F0000C00
01E0001800
01E0003800
03E000F800
03E003F000
07FFFFF000
3FFFFFF000
ENDCHAR

STARTCHAR Igrave
ENCODING 204
SWIDTH 333 0
DWIDTH 17 0
BBX 25 43 -3 0
BITMAP
0007C000
0003E000
0001E000
0000E000
00007000
00003000
00001000
00001800
00000000
00000000
001FFE00
0003F000
0003E000
0003E000
0003E000
0003C000
0003C000
0007C000
00078000
00078000
000F8000
000F0000
000F0000
000F0000
001F0000
001E0000
001E0000
003E0000
003C0000
003C0000
003C0000
007C0000
00780000
00780000
00F80000
00F00000
00F00000
00F00000
01E00000
01E00000
03E00000
07F00000
3FFE0000
ENDCHAR

STARTCHAR Iacute
ENCODING 205
SWIDTH 333 0
DWIDTH 17 0
BBX 25 43 -3 0
BITMAP
00003E00
00003C00
00007800
00007000
00007000
0000E000
0000C000
00008000
00000000
00000000
001FFE00
0003F000
0003E000
0003E000
0003E000
0003C000
0003C000
0007C000
00078000
00078000
000F8000
000F0000
000F0000
000F0000
001F0000
001E0000
001E0000
003E0000
003C0000
003C0000
003C0000
007C0000
00780000
00780000
00F80000
00F00000
00F00000
00F00000
01E00000
01E00000
03E00000
07F00000
3FFE0000
ENDCHAR

STARTCHAR Icircumflex
ENCODING 206
SWIDTH 333 0
DWIDTH 17 0
BBX 26 43 -3 0
BITMAP
00003E00
00007E00
0000FE00
0001EE00
00038600
00070300
00040100
00000100
00000000
00000000
001FFE00
0003F000
0003E000
0003E000
0003E000
0003C000
0003C000
0007C000
00078000
00078000
000F8000
000F0000
000F0000
000F0000
001F0000
001E0000
001E0000
003E0000
003C0000
003C0000
003C0000
007C0000
00780000
00780000
00F80000
00F00000
00F00000
00F00000
01E00000
01E00000
03E00000
07F00000
3FFE0000
ENDCHAR

STARTCHAR Idieresis
ENCODING 207
SWIDTH 333 0
DWIDTH 17 0
BBX 28 42 -4 0
BITMAP
00070380
000F87C0
000F87C0
000F87C0
00070380
00000000
00000000
00000000
00000000
001FFF00
0003F800
0001F000
0001F000
0001E000
0003E000
0003C000
0003C000
0007C000
0007C000
00078000
00078000
000F8000
000F0000
000F0000
001F0000
001E0000
001E0000
001E0000
003E0000
003C0000
003C0000
007C0000
00780000
00780000
00780000
00F80000
00F00000
00F00000
01F00000
01F00000
03F80000
3FFF0000
ENDCHAR

STARTCHAR Gbreve
ENCODING 208
SWIDTH 722 0
DWIDTH 36 0
BBX 36 44 2 -1
BITMAP
0000100080
0000080300
00000C0700
00000FFE00
000007FC00
000007F000
000001C000
0000000000
0000000000
00001FE040
0000FFFCC0
0003E01FC0
000F8007C0
003E000380
007C000180
00F8000180
01F0000180
03E0000100
03C0000100
07C0000000
0F80000000
0F80000000
1F00000000
1F00000000
1F00000000
3F00000000
3E0007FFE0
3E0000FF00
3E00007E00
3E00007C00
3E00007C00
3E00007800
3E00007800
3F0000F800
1F0000F000
1F0000F000
1F0000F000
0F8001F000
07C001E000
07C001E000
03E001E000
00F80FC000
003FFF0000
0007F80000
ENDCHAR

STARTCHAR Ntilde
ENCODING 209
SWIDTH 667 0
DWIDTH 33 0
BBX 43 43 -3 -1
BITMAP
000007804000
00000FE04000
00001FF84000
000011FFC000
0000107F8000
0000101F0000
000000000000
000000000000
000000000000
007FC003FF80
000FC0007C00
0007C0003800
0003E0003000
0003E0003000
0003F0006000
0006F0006000
0006F0006000
0006F8004000
00047800C000
000C7C00C000
000C3C00C000
000C3C018000
00183E018000
00181E018000
00181E010000
00100F030000
00300F030000
00300F830000
002007860000
006007860000
006003C60000
006003C40000
004003EC0000
00C001EC0000
00C001EC0000
008000F80000
018000F80000
018000F80000
018000700000
038000700000
078000700000
3FF000300000
000000200000
ENDCHAR

STARTCHAR Ograve
ENCODING 210
SWIDTH 722 0
DWIDTH 36 0
BBX 36 44 1 -1
BITMAP
00000F8000
0000078000
000003C000
000001C000
000000C000
0000006000
0000006000
0000002000
0000000000
000007C000
00007FF800
0001E03E00
0007801F00
000F000F80
001E000780
003C0007C0
00780003C0
00F00003E0
01F00003E0
03E00003E0
03C00003E0
07C00003E0
0FC00003E0
0F800003E0
1F800003E0
1F000007C0
1F000007C0
1F000007C0
3F00000F80
3E00000F80
3E00001F80
3E00001F00
3E00003E00
3E00003E00
3E00007C00
3E00007800
1F0000F800
1F0001F000
0F0003E000
0F80078000
07C00F0000
03E03C0000
00FFF00000
001F800000
ENDCHAR

STARTCHAR Oacute
ENCODING 211
SWIDTH 722 0
DWIDTH 36 0
BBX 36 44 1 -1
BITMAP
0000007C00
0000007C00
0000007800
000000F000
000000E000
000000C000
0000008000
0000010000
0000000000
000007C000
00007FF800
0001E03E00
0007801F00
000F000F80
001E000780
003C0007C0
00780003C0
00F00003E0
01F00003E0
03E00003E0
03C00003E0
07C00003E0
0FC00003E0
0F800003E0
1F800003E0
1F000007C0
1F000007C0
1F000007C0
3F00000F80
3E00000F80
3E00001F80
3E00001F00
3E00003E00
3E00003E00
3E00007C00
3E00007800
1F0000F800
1F0001F000
0F0003E000
0F80078000
07C00F0000
03E03C0000
00FFF00000
001F800000
ENDCHAR

STARTCHAR Ocircumflex
ENCODING 212
SWIDTH 722 0
DWIDTH 36 0
BBX 36 44 1 -1
BITMAP
0000007800
000000F800
000001FC00
0000039C00
0000070C00
00000C0C00
0000180600
0000200200
0000000000
000007C000
00007FF800
0001E03E00
0007801F00
000F000F80
001E000780
003C0007C0
00780003C0
00F00003E0
01F00003E0
03E00003E0
03C00003E0
07C00003E0
0FC00003E0
0F800003E0
1F800003E0
1F000007C0
1F000007C0
1F000007C0
3F00000F80
3E00000F80
3E00001F80
3E00001F00
3E00003E00
3E00003E00
3E00007C00
3E00007800
1F0000F800
1F0001F000
0F0003E000
0F80078000
07C00F0000
03E03C0000
00FFF00000
001F800000
ENDCHAR

STARTCHAR Otilde
ENCODING 213
SWIDTH 722 0
DWIDTH 36 0
BBX 36 43 1 -1
BITMAP
00001E0100
00003F8100
00007FE100
000047FE00
000041FE00
0000007C00
0000000000
0000000000
000007C000
00007FF800
0001E03E00
0007801F00
000F000F80
001E000780
003C0007C0
00780003C0
00F00003E0
01F00003E0
03E00003E0
03C00003E0
07C00003E0
0FC00003E0
0F800003E0
1F800003E0
1F000007C0
1F000007C0
1F000007C0
3F00000F80
3E00000F80
3E00001F80
3E00001F00
3E00003E00
3E00003E00
3E00007C00
3E00007800
1F0000F800
1F0001F000
0F0003E000
0F80078000
07C00F0000
03E03C0000
00FFF00000
001F800000
ENDCHAR

STARTCHAR Odieresis
ENCODING 214
SWIDTH 722 0
DWIDTH 36 0
BBX 36 43 1 -1
BITMAP
00001C0E00
00003E1F00
00003E1F00
00003E1F00
00001C0E00
0000000000
0000000000
0000000000
00000FC000
00007FF800
0001E03E00
0007801F00
000F000F80
001E000780
003C0007C0
00780003C0
00F00003E0
01F00003E0
03E00003E0
03C00003E0
07C00003E0
0F800003E0
0F800003E0
1F800007E0
1F000007C0
1F000007C0
1F000007C0
3F00000F80
3E00000F80
3E00001F00
3E00001F00
3E00003E00
3E00003E00
3E00007C00
3E0000F800
1F0000F000
1F0001F000
0F0003C000
0F80078000
07C01F0000
03E03C0000
00FFF00000
001F800000
ENDCHAR

STARTCHAR multiply
ENCODING 215
SWIDTH 675 0
DWIDTH 34 0
BBX 23 20 7 7
BITMAP
200000
700018
380030
1C0060
0E00C0
070180
038300
01C600
00EC00
007800
003800
007C00
00CE00
018700
030380
0601C0
0C00E0
180070
300038
600018
ENDCHAR

STARTCHAR Oslash
ENCODING 216
SWIDTH 722 0
DWIDTH 36 0
BBX 39 35 0 -1
BITMAP
000003E018
00003FFC38
0000F01F70
0003C00FE0
00078007C0
000F0003E0
001E0007E0
003C000FE0
0078001DF0
00F80039F0
01F00071F0
01F000E1F0
03E001C1F0
03E00381F0
07C00701F0
07C00E03F0
0F801C03E0
0F803803E0
0F807007E0
1F80E007E0
1F01C007C0
1F03800FC0
1F03000F80
1F06001F80
1F0C001F00
1F18003E00
1F30003E00
0FE0007C00
0FC000F800
078001F000
07C003E000
07E0078000
0DF01F0000
187FF80000
300F800000
ENDCHAR

STARTCHAR Ugrave
ENCODING 217
SWIDTH 722 0
DWIDTH 36 0
BBX 39 44 3 -1
BITMAP
00001F0000
00000F0000
0000078000
0000038000
0000018000
000001C000
000000C000
0000004000
0000000000
0000000000
1FFF801FF8
03F80007C0
01F0000380
01F0000300
01E0000300
01E0000300
03E0000200
03C0000600
03C0000600
03C0000600
07C0000C00
0780000C00
0780000C00
0F80000800
0F00001800
0F00001800
0F00001800
1F00003000
1E00003000
1E00003000
3E00002000
3C00006000
3C00006000
3C0000C000
3C0000C000
3C00008000
3C00018000
3E00030000
1E00030000
1F00060000
0F801C0000
07E0780000
01FFF00000
007F800000
ENDCHAR

STARTCHAR Uacute
ENCODING 218
SWIDTH 722 0
DWIDTH 36 0
BBX 39 44 3 -1
BITMAP
000000F800
000001F000
000001E000
000001C000
0000038000
0000030000
0000020000
0000060000
0000000000
0000000000
1FFF801FF8
03F80007C0
01F0000380
01F0000300
01E0000300
01E0000300
03E0000200
03C0000600
03C0000600
03C0000600
07C0000C00
0780000C00
0780000C00
0F80000800
0F00001800
0F00001800
0F00001800
1F00003000
1E00003000
1E00003000
3E00002000
3C00006000
3C00006000
3C0000C000
3C0000C000
3C00008000
3C00018000
3E00030000
1E00030000
1F00060000
0F801C0000
07E0780000
01FFF00000
007F800000
ENDCHAR

STARTCHAR Ucircumflex
ENCODING 219
SWIDTH 722 0
DWIDTH 36 0
BBX 39 44 3 -1
BITMAP
000001E000
000003F000
000007F000
00000E7000
00001C3000
0000301800
0000601800
0000800800
0000000000
0000000000
1FFF801FF8
03F80007C0
01F0000380
01F0000300
01E0000300
01E0000300
03E0000200
03C0000600
03C0000600
03C0000600
07C0000C00
0780000C00
0780000C00
0F80000800
0F00001800
0F00001800
0F00001800
1F00003000
1E00003000
1E00003000
3E00002000
3C00006000
3C00006000
3C0000C000
3C0000C000
3C00008000
3C00018000
3E00030000
1E00030000
1F00060000
0F801C0000
07E0780000
01FFF00000
007F800000
ENDCHAR

STARTCHAR Udieresis
ENCODING 220
SWIDTH 722 0
DWIDTH 36 0
BBX 39 43 4 -1
BITMAP
0000703800
0000F87C00
0000F87C00
0000F87C00
0000703800
0000000000
0000000000
0000000000
0000000000
1FFF803FF8
03F80007C0
01F0000380
01F0000300
01E0000300
01E0000300
03C0000600
03C0000600
03C0000600
03C0000400
0780000C00
0780000C00
0780000C00
0F80001800
0F00001800
0F00001800
0F00001000
1E00003000
1E00003000
1E00003000
3E00006000
3C00006000
3C00006000
3C0000C000
3C0000C000
3C00018000
3C00018000
3E00030000
1E00070000
1F000E0000
0F801C0000
07E0780000
01FFE00000
007F800000
ENDCHAR

STARTCHAR Idotaccent
ENCODING 221
SWIDTH 333 0
DWIDTH 17 0
BBX 25 42 -3 0
BITMAP
00007000
0000F800
0000F800
0000F800
00007000
00000000
00000000
00000000
00000000
001FFE00
0003F000
0003E000
0003E000
0003E000
0003C000
0003C000
0007C000
00078000
00078000
000F8000
000F0000
000F0000
000F0000
001F0000
001E0000
001E0000
003E0000
003C0000
003C0000
003C0000
007C0000
00780000
00780000
00F80000
00F00000
00F00000
00F00000
01E00000
01E00000
03E00000
07F00000
3FFE0000
ENDCHAR

STARTCHAR Scedilla
ENCODING 222
SWIDTH 500 0
DWIDTH 25 0
BBX 29 43 -1 -9
BITMAP
0003F010
000FFE30
001E07E0
003C03E0
007801E0
007000E0
00F000C0
00F00040
00F00040
00F80040
00F80000
007C0000
007E0000
003F0000
001F8000
001FC000
000FE000
0007F000
0003F800
0001F800
0000FC00
00007E00
08003E00
08003E00
08001E00
08001E00
18001E00
18001E00
18001E00
1C003C00
3E003C00
3F007800
3F81F000
21FFC000
203F0000
00180000
003E0000
003F0000
000F0000
000F0000
000E0000
001C0000
01F80000
ENDCHAR

STARTCHAR germandbls
ENCODING 223
SWIDTH 500 0
DWIDTH 25 0
BBX 36 46 -10 -11
BITMAP
000000FE00
000003C780
00000783C0
00000F01C0
00000E01E0
00001E01E0
00001C01E0
00003C01E0
00003C01E0
00003803C0
00007803C0
0000780780
0000700F00
0000701E00
0000F07800
0000F1C000
0000E07000
0001E03C00
0001E01E00
0001E01E00
0001C00F00
0003C00F00
0003C00F00
0003800F00
0007800F00
0007800F00
0007000F00
0007001E00
000F001E00
000F181E00
000E3C3C00
000E3C3800
001E387000
001C18F000
001C19C000
003C0F0000
0038000000
0038000000
0038000000
0070000000
0070000000
0060000000
38C0000000
39C0000000
3380000000
1E00000000
ENDCHAR

STARTCHAR agrave
ENCODING 224
SWIDTH 500 0
DWIDTH 25 0
BBX 25 35 0 -1
BITMAP
000F8000
0007C000
0003C000
0001C000
0000E000
00006000
00002000
00001000
00000000
00000000
00000000
00000000
000F9E00
0038DE00
00705E00
00C07C00
01C03C00
03803C00
07003C00
0F007800
0E007800
1E007800
1C007000
3C00F000
3800F000
3801F000
7801E000
7803E000
7807E000
780DC200
781BC400
7C33CC00
3FE3F800
3FC3F000
0F01C000
ENDCHAR

STARTCHAR aacute
ENCODING 225
SWIDTH 500 0
DWIDTH 25 0
BBX 25 35 0 -1
BITMAP
0000F800
0000F000
0000F000
0001E000
0001C000
00018000
00030000
00020000
00000000
00000000
00000000
00000000
000F9E00
0038DE00
00705E00
00C07C00
01C03C00
03803C00
07003C00
0F007800
0E007800
1E007800
1C007000
3C00F000
3800F000
3801F000
7801E000
7803E000
7807E000
780DC200
781BC400
7C33CC00
3FE3F800
3FC3F000
0F01C000
ENDCHAR

STARTCHAR acircumflex
ENCODING 226
SWIDTH 500 0
DWIDTH 25 0
BBX 25 35 0 -1
BITMAP
00007800
0000FC00
0001FC00
0003DC00
00070C00
000C0600
00180200
00200200
00000000
00000000
00000000
00000000
000F9E00
0038DE00
00705E00
00C07C00
01C03C00
03803C00
07003C00
0F007800
0E007800
1E007800
1C007000
3C00F000
3800F000
3801F000
7801E000
7803E000
7807E000
780DC200
781BC400
7C33CC00
3FE3F800
3FC3F000
0F01C000
ENDCHAR

STARTCHAR atilde
ENCODING 227
SWIDTH 500 0
DWIDTH 25 0
BBX 26 34 0 -1
BITMAP
001E0000
003F8100
003FE100
0063FF00
0041FE00
00407C00
00000000
00000000
00000000
00000000
00000000
000F9E00
0038DE00
00705E00
00C07C00
01C03C00
03803C00
07003C00
0F007800
0E007800
1E007800
1C007000
3C00F000
3800F000
3801F000
7801E000
7803E000
7807E000
780DC200
781BC400
7C33CC00
3FE3F800
3FC3F000
0F01C000
ENDCHAR

STARTCHAR adieresis
ENCODING 228
SWIDTH 500 0
DWIDTH 25 0
BBX 26 34 0 -1
BITMAP
001C0E00
003E1F00
003E1F00
003E1F00
001C0E00
00000000
00000000
00000000
00000000
00000000
00000000
001F9E00
0038DE00
00E05C00
01C07C00
03807C00
03807C00
07007800
0E007800
0E007800
1C007000
1C00F000
3C00F000
3801E000
3801E000
7803E000
7803E000
7807C000
780BC000
7813C400
7C73C800
3FC3F000
3F83E000
0F03C000
ENDCHAR

STARTCHAR aring
ENCODING 229
SWIDTH 500 0
DWIDTH 25 0
BBX 25 36 0 -1
BITMAP
00007000
0001F800
00030C00
00020600
00060600
00060600
00020600
00030C00
0001F800
00006000
00000000
00000000
00000000
000F9E00
0038DE00
00E05E00
01C07C00
03807C00
03807C00
07007800
0E007800
0E007800
1C007800
1C00F000
3C00F000
3800F000
3801E000
7803E000
7803E000
7805E000
780BC200
781BC400
7C33CC00
3FE3F800
3F83E000
0F03C000
ENDCHAR

STARTCHAR ae
ENCODING 230
SWIDTH 667 0
DWIDTH 33 0
BBX 34 23 0 -1
BITMAP
000F847C00
0038DD8E00
00705F0700
01E05E0700
01C07C0700
0380780F00
0700780E00
0F00781C00
0E00703C00
1E00F07000
1C00F1E000
3C00EF0000
3C01F00000
3801E00000
7803E00000
7807E00000
7805E00000
7809E00400
7C19F01800
7C30F83000
3FE0FFE000
1FC07F8000
0F001E0000
ENDCHAR

STARTCHAR ccedilla
ENCODING 231
SWIDTH 444 0
DWIDTH 22 0
BBX 24 33 -2 -11
BITMAP
0003F8
000F0C
003C0E
00700E
00E01E
01C03E
03C01C
038000
078000
0F0000
0F0000
0F0000
1E0000
1E0000
1E0000
1E0000
1E0000
1E0010
1F0030
0F8060
0FC3C0
07FF00
01FC00
00C000
00E000
01F800
03FC00
00FC00
007C00
007C00
007800
01F000
3FC000
ENDCHAR

STARTCHAR egrave
ENCODING 232
SWIDTH 444 0
DWIDTH 22 0
BBX 23 35 0 -1
BITMAP
000F80
000780
0003C0
0001C0
0001C0
0000E0
000060
000020
000000
000000
000000
000000
0007F0
001C78
00703C
00E03C
01C03C
038038
078078
0F00F0
0F01E0
1E03C0
1E0F00
1CF800
3F8000
3C0000
3C0000
3C0000
3C0010
3E0020
1F00C0
1F8180
0FFF00
07FC00
01E000
ENDCHAR

STARTCHAR eacute
ENCODING 233
SWIDTH 444 0
DWIDTH 22 0
BBX 23 35 0 -1
BITMAP
0000F8
0001F0
0001E0
0001C0
000180
000380
000300
000200
000000
000000
000000
000000
0007F0
001C78
00703C
00E03C
01C03C
038038
078078
0F00F0
0F01E0
1E03C0
1E0F00
1CF800
3F8000
3C0000
3C0000
3C0000
3C0010
3E0020
1F00C0
1F8180
0FFF00
07FC00
01E000
ENDCHAR

STARTCHAR ecircumflex
ENCODING 234
SWIDTH 444 0
DWIDTH 22 0
BBX 24 35 0 -1
BITMAP
000078
0000F8
0001F8
00039C
00071C
000C0C
001004
002002
000000
000000
000000
000000
0007F0
001C78
00703C
00E03C
01C03C
038038
078078
0F00F0
0F01E0
1E03C0
1E0F00
1CF800
3F8000
3C0000
3C0000
3C0000
3C0010
3E0020
1F00C0
1F8180
0FFF00
07FC00
01E000
ENDCHAR

STARTCHAR edieresis
ENCODING 235
SWIDTH 444 0
DWIDTH 22 0
BBX 26 34 0 -1
BITMAP
001C0E00
003E1F00
003E1F00
003E1F00
001C0E00
00000000
00000000
00000000
00000000
00000000
00000000
0007F000
003C7800
00703C00
00E03C00
01C03C00
03803800
07007800
0F00F000
0E01E000
1E03C000
1E0F0000
1CF80000
3F800000
3C000000
3C000000
3C000000
3C001000
3E002000
1E00C000
1F818000
0FFF0000
07FC0000
01E00000
ENDCHAR

STARTCHAR igrave
ENCODING 236
SWIDTH 278 0
DWIDTH 14 0
BBX 15 35 1 -1
BITMAP
03E0
01E0
00F0
0070
0070
0038
0018
0008
0000
0000
0000
0000
03C0
3FC0
07C0
0380
0780
0780
0780
0700
0F00
0F00
0E00
1E00
1E00
1E00
1C00
3C00
3C00
3840
7880
7900
7E00
7C00
3000
ENDCHAR

STARTCHAR iacute
ENCODING 237
SWIDTH 278 0
DWIDTH 14 0
BBX 17 35 1 -1
BITMAP
003E00
007C00
007800
007000
006000
00E000
00C000
008000
000000
000000
000000
000000
03C000
3FC000
07C000
038000
078000
078000
078000
070000
0F0000
0F0000
0E0000
1E0000
1E0000
1E0000
1C0000
3C0000
3C0000
384000
788000
790000
7E0000
7C0000
300000
ENDCHAR

STARTCHAR icircumflex
ENCODING 238
SWIDTH 278 0
DWIDTH 14 0
BBX 18 35 1 -1
BITMAP
001E00
003E00
007E00
00E700
01C700
030300
040100
080080
000000
000000
000000
000000
03C000
3FC000
07C000
038000
078000
078000
078000
070000
0F0000
0F0000
0E0000
1E0000
1E0000
1E0000
1C0000
3C0000
3C0000
384000
788000
790000
7E0000
7C0000
300000
ENDCHAR

STARTCHAR idieresis
ENCODING 239
SWIDTH 278 0
DWIDTH 14 0
BBX 20 34 1 -1
BITMAP
070380
0F87C0
0F87C0
0F87C0
070380
000000
000000
000000
000000
000000
000000
03C000
3FC000
07C000
038000
078000
078000
078000
070000
0F0000
0F0000
0E0000
1E0000
1E0000
1E0000
1C0000
3C0000
3C0000
384000
788000
790000
7E0000
7C0000
300000
ENDCHAR

STARTCHAR gbreve
ENCODING 240
SWIDTH 500 0
DWIDTH 25 0
BBX 31 45 -3 -11
BITMAP
00020030
00030060
000181E0
0001FFC0
0001FF80
0000FE00
00003C00
00000000
00000000
00000000
00000000
00000000
0007F800
001C1FF8
00780FF8
00F007F8
01F00780
01E00780
03E00780
03C00780
03C00F80
03C00F00
03C01F00
01E01E00
00E03C00
0078F000
001F8000
00300000
00E00000
01C00000
01E00000
01FC0000
01FFC000
01FFF800
031FFE00
0E00FF00
1C001F00
38000F00
38000700
38000700
38000E00
3C001C00
1F003800
07FFE000
007E0000
ENDCHAR

STARTCHAR ntilde
ENCODING 241
SWIDTH 500 0
DWIDTH 25 0
BBX 27 34 -1 -1
BITMAP
000F0080
001FC080
003FF080
0023FF00
0020FF00
00003E00
00000000
00000000
00000000
00000000
00000000
00701C00
0FF07E00
01E0FE00
01E19E00
01E21E00
01C41E00
01C81E00
03D81C00
03D03C00
03A03C00
07C03800
07C03800
07807800
0F807800
0F007000
0F00F000
0E00F000
1E00E100
1E00E200
1C01E400
3C01F800
3C01F000
00004000
ENDCHAR

STARTCHAR ograve
ENCODING 242
SWIDTH 500 0
DWIDTH 25 0
BBX 25 35 0 -1
BITMAP
000F8000
0007C000
0003C000
0001C000
0000E000
00006000
00002000
00003000
00000000
00000000
00000000
00000000
000FE000
00387000
00E03800
01C03C00
03801C00
07801E00
0F001E00
1F001E00
1E001E00
3E001E00
3C003E00
3C003E00
7C003C00
78007C00
78007800
78007800
7800F000
7801E000
3801E000
3C038000
1C070000
0F1E0000
07F00000
ENDCHAR

STARTCHAR oacute
ENCODING 243
SWIDTH 500 0
DWIDTH 25 0
BBX 25 35 0 -1
BITMAP
0000F800
0000F000
0001F000
0001E000
0001C000
00018000
00030000
00020000
00000000
00000000
00000000
00000000
000FE000
00387000
00E03800
01C03C00
03801C00
07801E00
0F001E00
1F001E00
1E001E00
3E001E00
3C003E00
3C003E00
7C003C00
78007C00
78007800
78007800
7800F000
7801E000
3801E000
3C038000
1C070000
0F1E0000
07F00000
ENDCHAR

STARTCHAR ocircumflex
ENCODING 244
SWIDTH 500 0
DWIDTH 25 0
BBX 25 35 0 -1
BITMAP
00007800
0000FC00
0001FC00
0003DC00
00070C00
000C0600
00180200
00200200
00000000
00000000
00000000
00000000
000FE000
00387000
00E03800
01C03C00
03801C00
07801E00
0F001E00
1F001E00
1E001E00
3E001E00
3C003E00
3C003E00
7C003C00
78007C00
78007800
78007800
7800F000
7801E000
3801E000
3C038000
1C070000
0F1E0000
07F00000
ENDCHAR

STARTCHAR otilde
ENCODING 245
SWIDTH 500 0
DWIDTH 25 0
BBX 26 34 0 -1
BITMAP
001E0100
003F8100
007FE100
0047FF00
0041FE00
00007C00
00000000
00000000
00000000
00000000
00000000
000FE000
00387000
00E03800
01C03C00
03801C00
07801E00
0F001E00
1F001E00
1E001E00
3E001E00
3C003E00
3C003E00
7C003C00
78007C00
78007800
78007800
7800F000
7801E000
3801E000
3C038000
1C070000
0F1E0000
07F00000
ENDCHAR

STARTCHAR odieresis
ENCODING 246
SWIDTH 500 0
DWIDTH 25 0
BBX 26 33 0 -1
BITMAP
001C0E00
003E1F00
003E1F00
003E1F00
001C0E00
00000000
00000000
00000000
00000000
00000000
000FE000
0078F000
00E03800
01C03C00
03801C00
07001E00
0F001E00
1E001E00
1E001E00
3C003E00
3C003E00
3C003E00
7C003C00
78007C00
78007800
7800F800
7800F000
7801E000
3803C000
3C038000
1C0F0000
0E1C0000
07F00000
ENDCHAR

STARTCHAR divide
ENCODING 247
SWIDTH 675 0
DWIDTH 34 0
BBX 29 19 4 7
BITMAP
00070000
000F0000
000F0000
00060000
00000000
00000000
00000000
00000000
7FFFFFE0
7FFFFFE0
00000000
00000000
00000000
00000000
00000000
000F0000
000F0000
000F0000
00070000
ENDCHAR

STARTCHAR oslash
ENCODING 248
SWIDTH 500 0
DWIDTH 25 0
BBX 28 25 -2 -2
BITMAP
000000C0
0003F980
000E1F00
00380F00
00700F00
00E00F00
01E01F80
03C03780
07C06780
0780C780
0F818780
0F030F80
0F060F80
1F0C0F00
1E181F00
1E301E00
1E601E00
1EC03C00
1F807800
0F007800
0F00E000
0F01C000
1BC78000
30FE0000
20000000
ENDCHAR

STARTCHAR ugrave
ENCODING 249
SWIDTH 500 0
DWIDTH 25 0
BBX 25 36 0 -1
BITMAP
000F8000
00078000
0003C000
0003C000
0001C000
0000E000
00006000
00002000
00001000
00000000
00000000
00000000
01800000
07C01E00
0FC01E00
1BC01C00
33C03C00
23C03C00
03803C00
07807800
07807800
07007800
0F00F000
0F00F000
0F01F000
0E02F000
1E02E000
1E04E000
1E0DE000
1C09C000
3C11C600
3C21C400
3C63C800
3FC3F000
3F03E000
1E01C000
ENDCHAR

STARTCHAR uacute
ENCODING 250
SWIDTH 500 0
DWIDTH 25 0
BBX 25 36 0 -1
BITMAP
0000FC00
0000F800
0000F000
0001E000
0001C000
00018000
00030000
00030000
00020000
00000000
00000000
00000000
01800000
07C01E00
0FC01E00
1BC01C00
33C03C00
23C03C00
03803C00
07807800
07807800
07007800
0F00F000
0F00F000
0F01F000
0E02F000
1E02E000
1E04E000
1E0DE000
1C09C000
3C11C600
3C21C400
3C63C800
3FC3F000
3F03E000
1E01C000
ENDCHAR

STARTCHAR ucircumflex
ENCODING 251
SWIDTH 500 0
DWIDTH 25 0
BBX 25 35 0 -1
BITMAP
00007800
0000FC00
0001FC00
00039C00
00060C00
000C0600
00100200
00000000
00000000
00000000
00000000
01800000
07C01E00
0FC01E00
1BC01C00
33C03C00
23C03C00
03803C00
07807800
07807800
07007800
0F00F000
0F00F000
0F01F000
0E02F000
1E02E000
1E04E000
1E0DE000
1C09C000
3C11C600
3C21C400
3C63C800
3FC3F000
3F03E000
1E01C000
ENDCHAR

STARTCHAR udieresis
ENCODING 252
SWIDTH 500 0
DWIDTH 25 0
BBX 26 34 0 -1
BITMAP
001C0E00
003E1F00
003E1F00
003E1F00
001C0E00
00000000
00000000
00000000
00000000
00000000
01800000
07C01E00
0FC01E00
1BC01C00
33C03C00
23C03C00
03803800
07807800
07807800
07007800
0F00F000
0F00F000
0F01F000
0E02F000
1E02E000
1E04E000
1E0DE000
1C09C000
3C11C600
3C21C400
3C63C800
3FC3F000
3F03E000
1E01C000
ENDCHAR

STARTCHAR dotlessi
ENCODING 253
SWIDTH 278 0
DWIDTH 14 0
BBX 12 23 1 -1
BITMAP
03C0
3FC0
07C0
0380
0780
0780
0780
0700
0F00
0F00
0E00
1E00
1E00
1E00
1C00
3C00
3C00
3840
7880
7900
7E00
7C00
1000
ENDCHAR

STARTCHAR scedilla
ENCODING 254
SWIDTH 389 0
DWIDTH 19 0
BBX 22 31 -2 -9
BITMAP
003F10
0071F0
00E0F0
01C060
01C060
01C060
01E020
01F020
00F800
00F800
007C00
003E00
003F00
001F00
000F00
100F80
100780
180780
180700
380700
3C0600
3E1C00
23F800
018000
01E000
03E000
00F000
00F000
00E000
01C000
1F8000
ENDCHAR

STARTCHAR ydieresis
ENCODING 255
SWIDTH 444 0
DWIDTH 22 0
BBX 29 43 -6 -11
BITMAP
000381C0
0007C3E0
0007C3E0
0007C3E0
000381C0
00000000
00000000
00000000
00000000
00000000
000C00E0
00FC01F0
01FE01F0
001E00F0
001E0070
000E0020
000E0020
000E0060
000F0040
000F0080
000F0180
000F0100
000F0300
000F0600
000F0400
00070800
00071800
00073000
00072000
0007C000
00078000
00078000
00070000
00060000
00040000
00080000
00180000
00300000
00600000
18C00000
3F800000
3E000000
3C000000
ENDCHAR
ENDFONT
